<?xml version="1.0" encoding="UTF-8"?>
<svg width="450px" height="360px" viewBox="0 0 450 360" version="1.1" xmlns="http://www.w3.org/2000/svg" xmlns:xlink="http://www.w3.org/1999/xlink">
    <!-- Generator: sketchtool 55.2 (78181) - https://sketchapp.com -->
    <title>88EFDD8F-AAE4-4A71-A6CB-840BF8707282</title>
    <desc>Created with sketchtool.</desc>
    <defs>
        <linearGradient x1="50%" y1="0%" x2="50%" y2="100%" id="linearGradient-1">
            <stop stop-color="#4FC4EE" offset="0%"></stop>
            <stop stop-color="#2791D9" stop-opacity="0" offset="100%"></stop>
        </linearGradient>
        <linearGradient x1="61.4400989%" y1="-7.70574774%" x2="61.4400989%" y2="96.7354304%" id="linearGradient-2">
            <stop stop-color="#17CCD5" offset="0%"></stop>
            <stop stop-color="#00C8FF" stop-opacity="0" offset="100%"></stop>
        </linearGradient>
        <linearGradient x1="50%" y1="0%" x2="50%" y2="100%" id="linearGradient-3">
            <stop stop-color="#4FC4EE" offset="0%"></stop>
            <stop stop-color="#2791D9" stop-opacity="0" offset="100%"></stop>
        </linearGradient>
        <linearGradient x1="61.4400989%" y1="-7.70574774%" x2="61.4400989%" y2="96.7354304%" id="linearGradient-4">
            <stop stop-color="#17CCD5" offset="0%"></stop>
            <stop stop-color="#00C8FF" stop-opacity="0" offset="100%"></stop>
        </linearGradient>
        <linearGradient x1="50%" y1="22.960986%" x2="50%" y2="100%" id="linearGradient-5">
            <stop stop-color="#4FC4EE" offset="0%"></stop>
            <stop stop-color="#2791D9" stop-opacity="0" offset="100%"></stop>
        </linearGradient>
        <linearGradient x1="61.4400989%" y1="-7.70574774%" x2="61.4400989%" y2="96.7354304%" id="linearGradient-6">
            <stop stop-color="#17CCD5" offset="0%"></stop>
            <stop stop-color="#00C8FF" stop-opacity="0" offset="100%"></stop>
        </linearGradient>
        <linearGradient x1="61.4400989%" y1="-7.70574774%" x2="61.4400989%" y2="96.7354304%" id="linearGradient-7">
            <stop stop-color="#17CCD5" offset="0%"></stop>
            <stop stop-color="#00C8FF" stop-opacity="0" offset="100%"></stop>
        </linearGradient>
        <linearGradient x1="50%" y1="0%" x2="50%" y2="100%" id="linearGradient-8">
            <stop stop-color="#4FC4EE" offset="0%"></stop>
            <stop stop-color="#2791D9" stop-opacity="0" offset="100%"></stop>
        </linearGradient>
        <linearGradient x1="50%" y1="0%" x2="50%" y2="100%" id="linearGradient-9">
            <stop stop-color="#4FC4EE" offset="0%"></stop>
            <stop stop-color="#2791D9" stop-opacity="0" offset="100%"></stop>
        </linearGradient>
        <filter x="-58.2%" y="-58.0%" width="216.5%" height="215.9%" filterUnits="objectBoundingBox" id="filter-10">
            <feGaussianBlur stdDeviation="1.66614676" in="SourceGraphic"></feGaussianBlur>
        </filter>
        <filter x="-29.4%" y="-29.3%" width="158.9%" height="158.6%" filterUnits="objectBoundingBox" id="filter-11">
            <feGaussianBlur stdDeviation="1.99937611" in="SourceGraphic"></feGaussianBlur>
        </filter>
        <path d="M59.7314655,120.4656 C80.3519139,114.44232 88.5639055,80.9754081 83.9507151,76.3295032 C79.3375247,71.6835983 71.2644415,75.168027 66.6512511,78.6524557 C62.0380607,82.1368843 59.7314655,84.4598367 59.7314655,78.6524557 C59.7314655,72.8450746 65.4979535,62.3917886 66.6512511,56.5844075 C67.8045487,50.7770264 67.8045487,40.3237404 62.0380607,41.4852166 C56.2715727,42.6466929 53.9649775,51.9385026 51.6583823,49.6155502 C49.3517871,47.2925977 47.0451919,38.000788 49.3517871,31.0319307 C51.6583823,24.0630734 48.1984895,11.2868349 42.4320015,14.7712636 C36.6655135,18.2556923 36.6655135,28.7089782 34.3589182,28.7089782 C32.052323,28.7089782 30.8990254,19.4171685 27.4391326,12.4483112 C23.9792398,5.47945385 21.6726446,-2.65087968 14.752859,0.833548973 C7.83307343,4.31797763 12.4462638,10.1253587 18.2127518,19.4171685 C23.9792398,28.7089782 29.7457278,40.3237404 23.9792398,39.1622642 C18.2127518,38.000788 4.37318062,28.7089782 0.913287822,36.8393118 C-2.54660498,44.9696453 4.37318062,49.6155502 12.4462638,50.7770264 C20.519347,51.9385026 23.9792398,60.0688361 14.752859,62.3917886 C5.52647823,64.714741 4.37318062,71.6835983 10.1396686,76.3295032 C15.9061566,80.9754081 45.1213264,85.1863882 25.3731673,94.6515425 C5.62500824,104.116697 39.1110171,126.48888 59.7314655,120.4656 Z" id="path-12"></path>
        <linearGradient x1="50%" y1="0%" x2="50%" y2="100%" id="linearGradient-14">
            <stop stop-color="#91FFF2" offset="0%"></stop>
            <stop stop-color="#16C3CB" offset="100%"></stop>
        </linearGradient>
        <path d="M172.242315,186.627754 C154.533809,134.905269 133.873887,155.594263 125.019634,136.383054 C116.165381,117.171845 123.543925,93.5272804 113.213964,83.1827833 C102.884002,72.8382862 82.2240794,66.927145 71.894118,43.2825801 C61.5641566,19.6380153 57.1370302,-9.91769075 18.7686021,4.86016227 C-19.599826,19.6380153 14.3414758,59.5382184 18.7686021,71.3605009 C23.1957284,83.1827833 20.2443109,89.0939245 11.3900582,103.871778 C2.5358056,118.649631 6.96293192,133.427484 14.3414758,142.294195 C21.7200197,151.160907 35.0013986,171.849901 33.5256899,186.627754 C32.0499811,201.405607 39.428525,276.772658 105.83542,269.383731 C172.242315,261.994805 189.95082,238.35024 172.242315,186.627754 Z" id="path-15"></path>
        <linearGradient x1="96.4185534%" y1="38.3397813%" x2="34.89209%" y2="51.2693723%" id="linearGradient-17">
            <stop stop-color="#1BB6ED" offset="0%"></stop>
            <stop stop-color="#E9F9FF" stop-opacity="0" offset="100%"></stop>
        </linearGradient>
        <linearGradient x1="50%" y1="0%" x2="50%" y2="100%" id="linearGradient-18">
            <stop stop-color="#000823" offset="0%"></stop>
            <stop stop-color="#2791D9" offset="100%"></stop>
        </linearGradient>
        <path d="M0.584113525,30.0591564 C0.584113525,30.0591564 -2.3729612,16.9688786 5.01972561,7.75720165 C12.4124124,-1.45447531 19.3122534,-2.42412551 15.3694871,5.81790123 C13.6888183,9.33120044 9.31215423,12.4765933 6.49826297,16.9688786 C2.71090404,23.0152732 0.584113525,30.0591564 0.584113525,30.0591564 Z" id="path-19"></path>
        <path d="M14.8990647,22.8177181 C13.4651532,15.5592274 12.3300181,10.5672603 11.4936593,7.84181694 C9.08775777,0.00170295687 2.98279532,-0.88636311 1.27744308,0.595413165 C-2.61444881,3.97706826 3.22338903,7.35872335 7.60176741,11.7065656 C10.5206863,14.6051271 12.9531188,18.3088446 14.8990647,22.8177181 Z" id="path-21"></path>
        <linearGradient x1="50%" y1="0%" x2="50%" y2="100%" id="linearGradient-23">
            <stop stop-color="#4FC4EE" offset="0%"></stop>
            <stop stop-color="#2791D9" offset="100%"></stop>
        </linearGradient>
        <linearGradient x1="50%" y1="0%" x2="50%" y2="100%" id="linearGradient-24">
            <stop stop-color="#FFCE07" offset="0%"></stop>
            <stop stop-color="#FFA107" offset="100%"></stop>
        </linearGradient>
        <path d="M2.57584683,38.6345296 C0.858615611,29.4561982 -4.97379915e-14,21.7119811 -4.97379915e-14,15.4018782 C-4.97379915e-14,5.93672397 6.01030928,-2.66796171 12.0206186,0.773912558 C18.0309278,4.21578683 23.1826215,19.7042211 16.3136966,28.3089067 C11.7344134,34.0453639 7.15513009,37.4872381 2.57584683,38.6345296 Z" id="path-25"></path>
        <linearGradient x1="50%" y1="0%" x2="50%" y2="100%" id="linearGradient-27">
            <stop stop-color="#FFCE07" offset="0%"></stop>
            <stop stop-color="#FFA107" offset="100%"></stop>
        </linearGradient>
        <path d="M35.2032401,7.74421711 C25.4722631,2.5814057 18.317133,-2.84217094e-14 13.7378498,-2.84217094e-14 C6.86892489,-2.84217094e-14 0,6.88374855 0,12.04656 C0,17.2093714 8.58615611,20.6512456 18.0309278,16.3489028 C24.3274423,13.4806742 30.0515464,10.6124457 35.2032401,7.74421711 Z" id="path-28"></path>
        <linearGradient x1="50%" y1="0%" x2="50%" y2="100%" id="linearGradient-30">
            <stop stop-color="#FFCE07" offset="0%"></stop>
            <stop stop-color="#FFA107" offset="100%"></stop>
        </linearGradient>
        <path d="M3.06648433,32.6978056 C0.204432288,26.3877028 -0.654183323,20.3644228 0.490637492,14.6279657 C2.20786871,6.02327998 6.50094677,0 9.93540922,0 C13.3698717,0 20.2387965,4.30234284 14.2284873,17.2093714 C10.2216144,25.814057 6.50094677,30.9768685 3.06648433,32.6978056 Z" id="path-31"></path>
        <linearGradient x1="50%" y1="0%" x2="50%" y2="100%" id="linearGradient-33">
            <stop stop-color="#FFCE07" offset="0%"></stop>
            <stop stop-color="#FFA107" offset="100%"></stop>
        </linearGradient>
        <path d="M18.044207,0.5756651 C11.6519077,-1.02039085 2.06345883,0.5756651 0.465384021,6.95988889 C-1.13269079,13.3441127 6.05864587,18.9303085 14.0490199,18.9303085 C22.039394,18.9303085 28.4316933,17.3342526 32.4268803,14.9401686 C35.0903383,13.3441127 36.9547589,11.4820474 38.0201422,9.35397281 C28.9643849,4.56580497 22.3057398,1.6397024 18.044207,0.5756651 Z" id="path-34"></path>
        <linearGradient x1="50%" y1="0%" x2="50%" y2="100%" id="linearGradient-36">
            <stop stop-color="#FFCE07" offset="0%"></stop>
            <stop stop-color="#FFA107" offset="100%"></stop>
        </linearGradient>
        <path d="M1.93188513,26.8983589 C0.214653903,20.5882561 -0.357756505,15.7122676 0.214653903,12.2703933 C1.07326951,7.10758188 2.79050074,-1.4971038 6.22496318,0.223833335 C9.65942563,1.94477047 13.9525037,3.66570761 13.0938881,10.5494562 C12.2352725,17.4332047 10.5180412,21.7355475 7.9421944,23.4564847 C6.22496318,24.6037761 4.22152676,25.7510675 1.93188513,26.8983589 Z" id="path-37"></path>
        <linearGradient x1="50%" y1="0%" x2="50%" y2="100%" id="linearGradient-39">
            <stop stop-color="#FFCE07" offset="0%"></stop>
            <stop stop-color="#FFA107" offset="100%"></stop>
        </linearGradient>
        <path d="M25.7903323,17.4675637 C21.214349,10.5878454 17.7816707,6.57513689 15.4922974,5.4294382 C12.0582376,3.71089017 6.90662969,1.9933783 3.46946135,5.43669133 C0.0322930168,8.88000435 1.74569638,15.7614496 7.75607825,17.4784434 C11.7629995,18.6231059 17.7744175,18.6194793 25.7903323,17.4675637 Z" id="path-40"></path>
        <linearGradient x1="50%" y1="0%" x2="50%" y2="100%" id="linearGradient-42">
            <stop stop-color="#FFCE07" offset="0%"></stop>
            <stop stop-color="#FFA107" offset="100%"></stop>
        </linearGradient>
        <path d="M22.5617373,23.2393429 C25.6749644,22.5052381 19.9858904,13.7741887 17.4100436,7.75090872 C14.8341968,1.72762874 12.2583499,-1.71424553 5.38942503,0.867160176 C-1.47949986,3.44856588 -1.47949986,12.0532516 3.67219381,15.4951258 C8.82388748,18.9370001 19.4485101,23.9734478 22.5617373,23.2393429 Z" id="path-43"></path>
        <linearGradient x1="50%" y1="0%" x2="50%" y2="100%" id="linearGradient-45">
            <stop stop-color="#2791D9" offset="0%"></stop>
            <stop stop-color="#1D6CA2" offset="100%"></stop>
        </linearGradient>
        <linearGradient x1="-1.11022302e-14%" y1="50%" x2="100%" y2="50%" id="linearGradient-46">
            <stop stop-color="#E1CA0C" offset="0%"></stop>
            <stop stop-color="#BF9A05" offset="100%"></stop>
        </linearGradient>
        <linearGradient x1="100%" y1="50%" x2="0%" y2="50%" id="linearGradient-47">
            <stop stop-color="#FFCE07" offset="0%"></stop>
            <stop stop-color="#FFE911" offset="100%"></stop>
        </linearGradient>
        <linearGradient x1="50%" y1="0%" x2="50%" y2="100%" id="linearGradient-48">
            <stop stop-color="#4FC4EE" offset="0%"></stop>
            <stop stop-color="#2791D9" offset="100%"></stop>
        </linearGradient>
        <linearGradient x1="50%" y1="0%" x2="50%" y2="100%" id="linearGradient-49">
            <stop stop-color="#001C65" offset="0%"></stop>
            <stop stop-color="#000C35" offset="100%"></stop>
        </linearGradient>
        <linearGradient x1="50%" y1="0%" x2="50%" y2="100%" id="linearGradient-50">
            <stop stop-color="#02277E" offset="0%"></stop>
            <stop stop-color="#011148" offset="100%"></stop>
        </linearGradient>
        <linearGradient x1="50%" y1="0%" x2="50%" y2="100%" id="linearGradient-51">
            <stop stop-color="#FFCE07" offset="0%"></stop>
            <stop stop-color="#FFA107" offset="100%"></stop>
        </linearGradient>
        <linearGradient x1="50%" y1="0%" x2="50%" y2="100%" id="linearGradient-52">
            <stop stop-color="#FFCE07" offset="0%"></stop>
            <stop stop-color="#FFA107" offset="100%"></stop>
        </linearGradient>
        <linearGradient x1="50%" y1="0%" x2="50%" y2="100%" id="linearGradient-53">
            <stop stop-color="#001C65" offset="0%"></stop>
            <stop stop-color="#000C35" offset="100%"></stop>
        </linearGradient>
        <linearGradient x1="50%" y1="0%" x2="50%" y2="100%" id="linearGradient-54">
            <stop stop-color="#02277E" offset="0%"></stop>
            <stop stop-color="#011148" offset="100%"></stop>
        </linearGradient>
        <linearGradient x1="50%" y1="0%" x2="50%" y2="100%" id="linearGradient-55">
            <stop stop-color="#000000" offset="0%"></stop>
            <stop stop-color="#111111" offset="100%"></stop>
        </linearGradient>
        <linearGradient x1="50%" y1="0%" x2="50%" y2="100%" id="linearGradient-56">
            <stop stop-color="#4FC4EE" offset="0%"></stop>
            <stop stop-color="#2791D9" offset="100%"></stop>
        </linearGradient>
        <linearGradient x1="-2.22044605e-14%" y1="50%" x2="100%" y2="50%" id="linearGradient-57">
            <stop stop-color="#4FC4EE" offset="0%"></stop>
            <stop stop-color="#2791D9" offset="100%"></stop>
        </linearGradient>
    </defs>
    <g id="REVAMP-FIX" stroke="none" stroke-width="1" fill="none" fill-rule="evenodd">
        <g id="LANDING-NEW-OPSI-3" transform="translate(-144.000000, -1311.000000)">
            <g id="Group-26" transform="translate(144.000000, 1271.000000)">
                <g transform="translate(152.500000, 235.500000) scale(-1, 1) translate(-152.500000, -235.500000) translate(-177.000000, 20.000000)">
                    <g id="Group" opacity="0.3" transform="translate(36.000000, 63.000000)">
                        <g id="Group-13" transform="translate(113.289936, 28.460488)" fill-rule="nonzero">
                            <polygon id="Rectangle-Copy-27" fill="url(#linearGradient-1)" points="13.5871651 12.5639269 13.5871651 0 65.796527 0 65.796527 12.921395 78.2383887 12.921395 78.2383887 136.75131 3.30584741 136.75131 3.30584741 12.5639269"></polygon>
                            <path d="M0,26.4679955 L82.6461853,26.4679955 L82.6461853,175.35047 L0,175.35047 L0,26.4679955 Z M13.4622535,30.737027 C11.6954936,30.737027 10.2632518,32.1692689 10.2632518,33.9360288 L10.2632518,59.0221328 C10.2632518,60.7888927 11.6954936,62.2211346 13.4622535,62.2211346 L17.8676729,62.2211346 C19.6344328,62.2211346 21.0666747,60.7888927 21.0666747,59.0221328 L21.0666747,33.9360288 C21.0666747,32.1692689 19.6344328,30.737027 17.8676729,30.737027 L13.4622535,30.737027 Z M26.426361,30.737027 C24.6596011,30.737027 23.2273593,32.1692689 23.2273593,33.9360288 L23.2273593,59.0221328 C23.2273593,60.7888927 24.6596011,62.2211346 26.426361,62.2211346 L30.8317804,62.2211346 C32.5985403,62.2211346 34.0307822,60.7888927 34.0307822,59.0221328 L34.0307822,33.9360288 C34.0307822,32.1692689 32.5985403,30.737027 30.8317804,30.737027 L26.426361,30.737027 Z M39.3904685,30.737027 C37.6237086,30.737027 36.1914667,32.1692689 36.1914667,33.9360288 L36.1914667,59.0221328 C36.1914667,60.7888927 37.6237086,62.2211346 39.3904685,62.2211346 L43.7958879,62.2211346 C45.5626478,62.2211346 46.9948897,60.7888927 46.9948897,59.0221328 L46.9948897,33.9360288 C46.9948897,32.1692689 45.5626478,30.737027 43.7958879,30.737027 L39.3904685,30.737027 Z M52.354576,30.737027 C50.5878161,30.737027 49.1555742,32.1692689 49.1555742,33.9360288 L49.1555742,59.0221328 C49.1555742,60.7888927 50.5878161,62.2211346 52.354576,62.2211346 L56.7599954,62.2211346 C58.5267553,62.2211346 59.9589972,60.7888927 59.9589972,59.0221328 L59.9589972,33.9360288 C59.9589972,32.1692689 58.5267553,30.737027 56.7599954,30.737027 L52.354576,30.737027 Z M65.3186835,30.737027 C63.5519236,30.737027 62.1196817,32.1692689 62.1196817,33.9360288 L62.1196817,59.0221328 C62.1196817,60.7888927 63.5519236,62.2211346 65.3186835,62.2211346 L69.7241029,62.2211346 C71.4908628,62.2211346 72.9231046,60.7888927 72.9231046,59.0221328 L72.9231046,33.9360288 C72.9231046,32.1692689 71.4908628,30.737027 69.7241029,30.737027 L65.3186835,30.737027 Z M13.4622535,65.9565371 C11.6954936,65.9565371 10.2632518,67.388779 10.2632518,69.1555389 L10.2632518,94.2416429 C10.2632518,96.0084028 11.6954936,97.4406447 13.4622535,97.4406447 L17.8676729,97.4406447 C19.6344328,97.4406447 21.0666747,96.0084028 21.0666747,94.2416429 L21.0666747,69.1555389 C21.0666747,67.388779 19.6344328,65.9565371 17.8676729,65.9565371 L13.4622535,65.9565371 Z M26.426361,65.9565371 C24.6596011,65.9565371 23.2273593,67.388779 23.2273593,69.1555389 L23.2273593,94.2416429 C23.2273593,96.0084028 24.6596011,97.4406447 26.426361,97.4406447 L30.8317804,97.4406447 C32.5985403,97.4406447 34.0307822,96.0084028 34.0307822,94.2416429 L34.0307822,69.1555389 C34.0307822,67.388779 32.5985403,65.9565371 30.8317804,65.9565371 L26.426361,65.9565371 Z M39.3904685,65.9565371 C37.6237086,65.9565371 36.1914667,67.388779 36.1914667,69.1555389 L36.1914667,94.2416429 C36.1914667,96.0084028 37.6237086,97.4406447 39.3904685,97.4406447 L43.7958879,97.4406447 C45.5626478,97.4406447 46.9948897,96.0084028 46.9948897,94.2416429 L46.9948897,69.1555389 C46.9948897,67.388779 45.5626478,65.9565371 43.7958879,65.9565371 L39.3904685,65.9565371 Z M52.354576,65.9565371 C50.5878161,65.9565371 49.1555742,67.388779 49.1555742,69.1555389 L49.1555742,94.2416429 C49.1555742,96.0084028 50.5878161,97.4406447 52.354576,97.4406447 L56.7599954,97.4406447 C58.5267553,97.4406447 59.9589972,96.0084028 59.9589972,94.2416429 L59.9589972,69.1555389 C59.9589972,67.388779 58.5267553,65.9565371 56.7599954,65.9565371 L52.354576,65.9565371 Z M65.3186835,65.9565371 C63.5519236,65.9565371 62.1196817,67.388779 62.1196817,69.1555389 L62.1196817,94.2416429 C62.1196817,96.0084028 63.5519236,97.4406447 65.3186835,97.4406447 L69.7241029,97.4406447 C71.4908628,97.4406447 72.9231046,96.0084028 72.9231046,94.2416429 L72.9231046,69.1555389 C72.9231046,67.388779 71.4908628,65.9565371 69.7241029,65.9565371 L65.3186835,65.9565371 Z M13.4622535,101.176047 C11.6954936,101.176047 10.2632518,102.608289 10.2632518,104.375049 L10.2632518,129.461153 C10.2632518,131.227913 11.6954936,132.660155 13.4622535,132.660155 L17.8676729,132.660155 C19.6344328,132.660155 21.0666747,131.227913 21.0666747,129.461153 L21.0666747,104.375049 C21.0666747,102.608289 19.6344328,101.176047 17.8676729,101.176047 L13.4622535,101.176047 Z M26.426361,101.176047 C24.6596011,101.176047 23.2273593,102.608289 23.2273593,104.375049 L23.2273593,129.461153 C23.2273593,131.227913 24.6596011,132.660155 26.426361,132.660155 L30.8317804,132.660155 C32.5985403,132.660155 34.0307822,131.227913 34.0307822,129.461153 L34.0307822,104.375049 C34.0307822,102.608289 32.5985403,101.176047 30.8317804,101.176047 L26.426361,101.176047 Z M39.3904685,101.176047 C37.6237086,101.176047 36.1914667,102.608289 36.1914667,104.375049 L36.1914667,129.461153 C36.1914667,131.227913 37.6237086,132.660155 39.3904685,132.660155 L43.7958879,132.660155 C45.5626478,132.660155 46.9948897,131.227913 46.9948897,129.461153 L46.9948897,104.375049 C46.9948897,102.608289 45.5626478,101.176047 43.7958879,101.176047 L39.3904685,101.176047 Z M52.354576,101.176047 C50.5878161,101.176047 49.1555742,102.608289 49.1555742,104.375049 L49.1555742,129.461153 C49.1555742,131.227913 50.5878161,132.660155 52.354576,132.660155 L56.7599954,132.660155 C58.5267553,132.660155 59.9589972,131.227913 59.9589972,129.461153 L59.9589972,104.375049 C59.9589972,102.608289 58.5267553,101.176047 56.7599954,101.176047 L52.354576,101.176047 Z M65.3186835,101.176047 C63.5519236,101.176047 62.1196817,102.608289 62.1196817,104.375049 L62.1196817,129.461153 C62.1196817,131.227913 63.5519236,132.660155 65.3186835,132.660155 L69.7241029,132.660155 C71.4908628,132.660155 72.9231046,131.227913 72.9231046,129.461153 L72.9231046,104.375049 C72.9231046,102.608289 71.4908628,101.176047 69.7241029,101.176047 L65.3186835,101.176047 Z" id="Combined-Shape" fill="url(#linearGradient-2)"></path>
                            <rect id="Rectangle" fill="#4FB9FF" x="7.71364396" y="15.439664" width="67.2188973" height="1.10283315"></rect>
                        </g>
                        <path d="M288.048123,5.52697755 L291.484128,5.52697755 C293.250888,5.52697755 294.68313,6.95921944 294.68313,8.72597933 L294.68313,172.558884 C294.68313,174.325644 293.250888,175.757886 291.484128,175.757886 L285.48083,175.757886 L285.48083,15.8836376 C285.48083,15.0365893 284.794162,14.349921 283.947114,14.349921 C283.100065,14.349921 282.413397,15.0365893 282.413397,15.8836376 L282.413397,175.757886 L276.278531,175.757886 L276.278531,15.8836376 C276.278531,15.0365893 275.591862,14.349921 274.744814,14.349921 C273.897766,14.349921 273.211098,15.0365893 273.211098,15.8836376 L273.211098,175.757886 L267.076231,175.757886 L267.076231,15.8836376 C267.076231,15.0365893 266.389563,14.349921 265.542515,14.349921 C264.695467,14.349921 264.008798,15.0365893 264.008798,15.8836376 L264.008798,175.757886 L258.385171,175.757886 L258.385171,15.8836376 C258.385171,15.0365893 257.698502,14.349921 256.851454,14.349921 C256.004406,14.349921 255.317738,15.0365893 255.317738,15.8836376 L255.317738,175.757886 L249.182871,175.757886 L249.182871,15.8836376 C249.182871,15.0365893 248.496203,14.349921 247.649155,14.349921 C246.802107,14.349921 246.115438,15.0365893 246.115438,15.8836376 L246.115438,175.757886 L239.980572,175.757886 L239.980572,15.8836376 C239.980572,15.0365893 239.293904,14.349921 238.446855,14.349921 C237.599807,14.349921 236.913139,15.0365893 236.913139,15.8836376 L236.913139,175.757886 L230.778273,175.757886 L230.778273,15.8836376 C230.778273,15.0365893 230.091604,14.349921 229.244556,14.349921 C228.397508,14.349921 227.710839,15.0365893 227.710839,15.8836376 L227.710839,175.757886 L221.196303,175.757886 C219.429543,175.757886 217.997301,174.325644 217.997301,172.558884 L217.997301,8.72597933 C217.997301,6.95921944 219.429543,5.52697755 221.196303,5.52697755 L225.727819,5.52697755 C225.687241,5.33727862 225.665884,5.14045446 225.665884,4.93864201 L225.665884,2.79912656 C225.665884,1.25321165 226.919096,2.87056894e-14 228.465011,2.84217094e-14 L229.439828,2.84217094e-14 C230.985743,2.81377295e-14 232.238955,1.25321165 232.238955,2.79912656 L232.238955,4.93864201 C232.238955,5.14045446 232.217598,5.33727862 232.17702,5.52697755 L281.598923,5.52697755 C281.558345,5.33727862 281.536988,5.14045446 281.536988,4.93864201 L281.536988,2.79912656 C281.536988,1.25321165 282.790199,2.91497786e-14 284.336114,2.84217094e-14 L285.310932,2.84217094e-14 C286.856847,2.85818187e-14 288.110059,1.25321165 288.110059,2.79912656 L288.110059,4.93864201 C288.110059,5.14045446 288.088701,5.33727862 288.048123,5.52697755 Z" id="Combined-Shape-Copy-6" fill="url(#linearGradient-3)" fill-rule="nonzero" opacity="0.867420015"></path>
                        <g id="Group-10-Copy" transform="translate(359.609721, 66.407805)" fill-rule="nonzero">
                            <rect id="Rectangle-Copy-8" fill="url(#linearGradient-4)" x="10.065015" y="0.183461291" width="79.6051185" height="72.1002875" rx="3.19900178"></rect>
                            <path d="M8.68900995,7.57836257 L91.9611398,7.57836257 C93.7278997,7.57836257 95.1601416,9.01060445 95.1601416,10.7773644 L95.1601416,76.4796482 C95.1601416,78.2464081 93.7278997,79.67865 91.9611398,79.67865 L8.68900995,79.67865 C6.92225005,79.67865 5.49000817,78.2464081 5.49000817,76.4796482 L5.49000817,10.7773644 C5.49000817,9.01060445 6.92225005,7.57836257 8.68900995,7.57836257 Z M16.5090797,12.4942913 C14.7423198,12.4942913 13.3100779,13.9265331 13.3100779,15.693293 L13.3100779,25.3539899 C13.3100779,27.1207498 14.7423198,28.5529916 16.5090797,28.5529916 L18.9738219,28.5529916 C20.7405818,28.5529916 22.1728237,27.1207498 22.1728237,25.3539899 L22.1728237,15.693293 C22.1728237,13.9265331 20.7405818,12.4942913 18.9738219,12.4942913 L16.5090797,12.4942913 Z M32.6705573,12.4942913 C30.9037974,12.4942913 29.4715555,13.9265331 29.4715555,15.693293 L29.4715555,25.3539899 C29.4715555,27.1207498 30.9037974,28.5529916 32.6705573,28.5529916 L35.1352995,28.5529916 C36.9020594,28.5529916 38.3343012,27.1207498 38.3343012,25.3539899 L38.3343012,15.693293 C38.3343012,13.9265331 36.9020594,12.4942913 35.1352995,12.4942913 L32.6705573,12.4942913 Z M48.8320348,12.4942913 C47.0652749,12.4942913 45.633033,13.9265331 45.633033,15.693293 L45.633033,25.3539899 C45.633033,27.1207498 47.0652749,28.5529916 48.8320348,28.5529916 L51.296777,28.5529916 C53.0635369,28.5529916 54.4957788,27.1207498 54.4957788,25.3539899 L54.4957788,15.693293 C54.4957788,13.9265331 53.0635369,12.4942913 51.296777,12.4942913 L48.8320348,12.4942913 Z M64.9935123,12.4942913 C63.2267524,12.4942913 61.7945106,13.9265331 61.7945106,15.693293 L61.7945106,25.3539899 C61.7945106,27.1207498 63.2267524,28.5529916 64.9935123,28.5529916 L67.4582545,28.5529916 C69.2250144,28.5529916 70.6572563,27.1207498 70.6572563,25.3539899 L70.6572563,15.693293 C70.6572563,13.9265331 69.2250144,12.4942913 67.4582545,12.4942913 L64.9935123,12.4942913 Z M81.1549899,12.4942913 C79.38823,12.4942913 77.9559881,13.9265331 77.9559881,15.693293 L77.9559881,25.3539899 C77.9559881,27.1207498 79.38823,28.5529916 81.1549899,28.5529916 L83.6197321,28.5529916 C85.386492,28.5529916 86.8187339,27.1207498 86.8187339,25.3539899 L86.8187339,15.693293 C86.8187339,13.9265331 85.386492,12.4942913 83.6197321,12.4942913 L81.1549899,12.4942913 Z" id="Combined-Shape" fill="url(#linearGradient-5)"></path>
                            <path d="M3.19900178,30.6874291 L97.451148,30.6874291 C99.2179079,30.6874291 100.65015,32.1196709 100.65015,33.8864308 L100.65015,99.5887147 C100.65015,101.355475 99.2179079,102.787717 97.451148,102.787717 L3.19900178,102.787717 C1.43224188,102.787717 -3.33634799e-15,101.355475 0,99.5887147 L0,33.8864308 C-6.60454895e-16,32.1196709 1.43224188,30.6874291 3.19900178,30.6874291 Z M8.46864313,33.9647149 C6.70188323,33.9647149 5.26964135,35.3969567 5.26964135,37.1637166 L5.26964135,78.6140857 C5.26964135,80.3808456 6.70188323,81.8130874 8.46864313,81.8130874 L28.9458105,81.8130874 C30.7125704,81.8130874 32.1448122,80.3808456 32.1448122,78.6140857 L32.1448122,37.1637166 C32.1448122,35.3969567 30.7125704,33.9647149 28.9458105,33.9647149 L8.46864313,33.9647149 Z M40.0864912,33.9647149 C38.3197313,33.9647149 36.8874895,35.3969567 36.8874895,37.1637166 L36.8874895,78.6140857 C36.8874895,80.3808456 38.3197313,81.8130874 40.0864912,81.8130874 L60.5636586,81.8130874 C62.3304185,81.8130874 63.7626603,80.3808456 63.7626603,78.6140857 L63.7626603,37.1637166 C63.7626603,35.3969567 62.3304185,33.9647149 60.5636586,33.9647149 L40.0864912,33.9647149 Z M72.2313035,33.9647149 C70.4645436,33.9647149 69.0323017,35.3969567 69.0323017,37.1637166 L69.0323017,78.6140857 C69.0323017,80.3808456 70.4645436,81.8130874 72.2313035,81.8130874 L92.7084708,81.8130874 C94.4752307,81.8130874 95.9074726,80.3808456 95.9074726,78.6140857 L95.9074726,37.1637166 C95.9074726,35.3969567 94.4752307,33.9647149 92.7084708,33.9647149 L72.2313035,33.9647149 Z" id="Combined-Shape" fill="url(#linearGradient-6)"></path>
                        </g>
                        <g id="Group-12" transform="translate(30.897255, 130.228293)" fill-rule="nonzero">
                            <rect id="Rectangle-Copy-50" fill="url(#linearGradient-7)" x="16.5049408" y="-1.42108547e-14" width="104.031142" height="101.758425" rx="1.59950089"></rect>
                            <path d="M35.6096818,13.4023291 L101.931491,13.4023291 C102.814871,13.4023291 103.530992,14.11845 103.530992,15.00183 L103.530992,113.561253 C103.530992,114.444633 102.814871,115.160754 101.931491,115.160754 L35.6096818,115.160754 C34.7263019,115.160754 34.0101809,114.444633 34.0101809,113.561253 L34.0101809,15.00183 C34.0101809,14.11845 34.7263019,13.4023291 35.6096818,13.4023291 Z M43.6120774,19.8553023 C42.7286974,19.8553023 42.0125765,20.5714233 42.0125765,21.4548032 L42.0125765,27.6870701 C42.0125765,28.57045 42.7286974,29.286571 43.6120774,29.286571 L49.9159203,29.286571 C50.7993002,29.286571 51.5154211,28.57045 51.5154211,27.6870701 L51.5154211,21.4548032 C51.5154211,20.5714233 50.7993002,19.8553023 49.9159203,19.8553023 L43.6120774,19.8553023 Z M58.1164192,19.8553023 C57.2330393,19.8553023 56.5169183,20.5714233 56.5169183,21.4548032 L56.5169183,27.6870701 C56.5169183,28.57045 57.2330393,29.286571 58.1164192,29.286571 L64.4202621,29.286571 C65.3036421,29.286571 66.019763,28.57045 66.019763,27.6870701 L66.019763,21.4548032 C66.019763,20.5714233 65.3036421,19.8553023 64.4202621,19.8553023 L58.1164192,19.8553023 Z M72.6207611,19.8553023 C71.7373812,19.8553023 71.0212602,20.5714233 71.0212602,21.4548032 L71.0212602,27.6870701 C71.0212602,28.57045 71.7373812,29.286571 72.6207611,29.286571 L78.924604,29.286571 C79.807984,29.286571 80.5241049,28.57045 80.5241049,27.6870701 L80.5241049,21.4548032 C80.5241049,20.5714233 79.807984,19.8553023 78.924604,19.8553023 L72.6207611,19.8553023 Z M87.125103,19.8553023 C86.241723,19.8553023 85.5256021,20.5714233 85.5256021,21.4548032 L85.5256021,27.6870701 C85.5256021,28.57045 86.241723,29.286571 87.125103,29.286571 L93.4289459,29.286571 C94.3123258,29.286571 95.0284468,28.57045 95.0284468,27.6870701 L95.0284468,21.4548032 C95.0284468,20.5714233 94.3123258,19.8553023 93.4289459,19.8553023 L87.125103,19.8553023 Z M43.6120774,47.1563431 C42.7286974,47.1563431 42.0125765,47.872464 42.0125765,48.755844 L42.0125765,54.9881108 C42.0125765,55.8714907 42.7286974,56.5876117 43.6120774,56.5876117 L49.9159203,56.5876117 C50.7993002,56.5876117 51.5154211,55.8714907 51.5154211,54.9881108 L51.5154211,48.755844 C51.5154211,47.872464 50.7993002,47.1563431 49.9159203,47.1563431 L43.6120774,47.1563431 Z M58.1164192,47.1563431 C57.2330393,47.1563431 56.5169183,47.872464 56.5169183,48.755844 L56.5169183,54.9881108 C56.5169183,55.8714907 57.2330393,56.5876117 58.1164192,56.5876117 L64.4202621,56.5876117 C65.3036421,56.5876117 66.019763,55.8714907 66.019763,54.9881108 L66.019763,48.755844 C66.019763,47.872464 65.3036421,47.1563431 64.4202621,47.1563431 L58.1164192,47.1563431 Z M72.6207611,47.1563431 C71.7373812,47.1563431 71.0212602,47.872464 71.0212602,48.755844 L71.0212602,54.9881108 C71.0212602,55.8714907 71.7373812,56.5876117 72.6207611,56.5876117 L78.924604,56.5876117 C79.807984,56.5876117 80.5241049,55.8714907 80.5241049,54.9881108 L80.5241049,48.755844 C80.5241049,47.872464 79.807984,47.1563431 78.924604,47.1563431 L72.6207611,47.1563431 Z M87.125103,47.1563431 C86.241723,47.1563431 85.5256021,47.872464 85.5256021,48.755844 L85.5256021,54.9881108 C85.5256021,55.8714907 86.241723,56.5876117 87.125103,56.5876117 L93.4289459,56.5876117 C94.3123258,56.5876117 95.0284468,55.8714907 95.0284468,54.9881108 L95.0284468,48.755844 C95.0284468,47.872464 94.3123258,47.1563431 93.4289459,47.1563431 L87.125103,47.1563431 Z M43.6120774,33.2576314 C42.7286974,33.2576314 42.0125765,33.9737524 42.0125765,34.8571323 L42.0125765,41.0893991 C42.0125765,41.9727791 42.7286974,42.6889 43.6120774,42.6889 L49.9159203,42.6889 C50.7993002,42.6889 51.5154211,41.9727791 51.5154211,41.0893991 L51.5154211,34.8571323 C51.5154211,33.9737524 50.7993002,33.2576314 49.9159203,33.2576314 L43.6120774,33.2576314 Z M58.1164192,33.2576314 C57.2330393,33.2576314 56.5169183,33.9737524 56.5169183,34.8571323 L56.5169183,41.0893991 C56.5169183,41.9727791 57.2330393,42.6889 58.1164192,42.6889 L64.4202621,42.6889 C65.3036421,42.6889 66.019763,41.9727791 66.019763,41.0893991 L66.019763,34.8571323 C66.019763,33.9737524 65.3036421,33.2576314 64.4202621,33.2576314 L58.1164192,33.2576314 Z M72.6207611,33.2576314 C71.7373812,33.2576314 71.0212602,33.9737524 71.0212602,34.8571323 L71.0212602,41.0893991 C71.0212602,41.9727791 71.7373812,42.6889 72.6207611,42.6889 L78.924604,42.6889 C79.807984,42.6889 80.5241049,41.9727791 80.5241049,41.0893991 L80.5241049,34.8571323 C80.5241049,33.9737524 79.807984,33.2576314 78.924604,33.2576314 L72.6207611,33.2576314 Z M87.125103,33.2576314 C86.241723,33.2576314 85.5256021,33.9737524 85.5256021,34.8571323 L85.5256021,41.0893991 C85.5256021,41.9727791 86.241723,42.6889 87.125103,42.6889 L93.4289459,42.6889 C94.3123258,42.6889 95.0284468,41.9727791 95.0284468,41.0893991 L95.0284468,34.8571323 C95.0284468,33.9737524 94.3123258,33.2576314 93.4289459,33.2576314 L87.125103,33.2576314 Z M43.6120774,60.5586721 C42.7286974,60.5586721 42.0125765,61.2747931 42.0125765,62.158173 L42.0125765,68.3904399 C42.0125765,69.2738198 42.7286974,69.9899408 43.6120774,69.9899408 L49.9159203,69.9899408 C50.7993002,69.9899408 51.5154211,69.2738198 51.5154211,68.3904399 L51.5154211,62.158173 C51.5154211,61.2747931 50.7993002,60.5586721 49.9159203,60.5586721 L43.6120774,60.5586721 Z M58.1164192,60.5586721 C57.2330393,60.5586721 56.5169183,61.2747931 56.5169183,62.158173 L56.5169183,68.3904399 C56.5169183,69.2738198 57.2330393,69.9899408 58.1164192,69.9899408 L64.4202621,69.9899408 C65.3036421,69.9899408 66.019763,69.2738198 66.019763,68.3904399 L66.019763,62.158173 C66.019763,61.2747931 65.3036421,60.5586721 64.4202621,60.5586721 L58.1164192,60.5586721 Z M72.6207611,60.5586721 C71.7373812,60.5586721 71.0212602,61.2747931 71.0212602,62.158173 L71.0212602,68.3904399 C71.0212602,69.2738198 71.7373812,69.9899408 72.6207611,69.9899408 L78.924604,69.9899408 C79.807984,69.9899408 80.5241049,69.2738198 80.5241049,68.3904399 L80.5241049,62.158173 C80.5241049,61.2747931 79.807984,60.5586721 78.924604,60.5586721 L72.6207611,60.5586721 Z M87.125103,60.5586721 C86.241723,60.5586721 85.5256021,61.2747931 85.5256021,62.158173 L85.5256021,68.3904399 C85.5256021,69.2738198 86.241723,69.9899408 87.125103,69.9899408 L93.4289459,69.9899408 C94.3123258,69.9899408 95.0284468,69.2738198 95.0284468,68.3904399 L95.0284468,62.158173 C95.0284468,61.2747931 94.3123258,60.5586721 93.4289459,60.5586721 L87.125103,60.5586721 Z" id="Combined-Shape" fill="url(#linearGradient-8)"></path>
                            <rect id="Rectangle-Copy-52" fill="url(#linearGradient-9)" x="2.84217094e-14" y="19.8553023" width="24.0071866" height="71.4790884" rx="1.59950089"></rect>
                            <rect id="Rectangle-Copy-53" fill="url(#linearGradient-9)" x="113.533986" y="20.8480675" width="24.0071866" height="71.4790884" rx="1.59950089"></rect>
                        </g>
                        <ellipse id="Oval-Copy-5" fill="#33BEEF" filter="url(#filter-10)" cx="4.29128546" cy="230.27122" rx="4.29128546" ry="4.31219512"></ellipse>
                        <ellipse id="Oval-Copy-3" fill="#47D2FF" filter="url(#filter-11)" cx="62.5385191" cy="68.0158943" rx="10.1848366" ry="10.2324797"></ellipse>
                    </g>
                    <g id="Path-126-+-Path-128-+-Path-129-+-Path-130-Mask-Copy" transform="translate(304.855006, 236.495718) rotate(-13.000000) translate(-304.855006, -236.495718) translate(261.855006, 175.495718)">
                        <mask id="mask-13" fill="white">
                            <use xlink:href="#path-12"></use>
                        </mask>
                        <use id="Mask" fill="#259471" xlink:href="#path-12"></use>
                        <path d="M60.1030928,120.4656 C52.688831,94.919454 46.8931756,76.0001771 42.7161267,63.707769 C38.5390777,51.4153609 28.8796521,30.1794379 13.7378498,0" id="Path-126" stroke="#FFFFFF" stroke-width="0.520561078" mask="url(#mask-13)"></path>
                        <path d="M-2.34479103e-13,35.8267822 C7.92388235,40.3992185 14.1059147,43.5281951 18.5460972,45.213712 C22.9862797,46.899229 29.1683121,48.4637173 37.0921944,49.907177 C39.582897,42.4497827 41.4006587,35.852857 42.5454795,30.1163999 C43.6903003,24.3799428 44.5771778,18.0698399 45.2061119,11.1860914" id="Path-128" stroke="#FFFFFF" stroke-width="0.520561078" mask="url(#mask-13)"></path>
                        <path d="M3.0491614,62.8142055 C15.06978,67.9770169 23.0835257,71.1320683 27.0903985,72.2793597 C31.0972714,73.4266511 37.9661963,75.1475883 47.6971732,77.4421711 C53.4212773,68.8374855 57.1419449,62.5273826 58.8591761,58.5118626 C60.5764074,54.4963427 62.866049,49.0467084 65.728101,42.1629598" id="Path-129" stroke="#FFFFFF" stroke-width="0.520561078" mask="url(#mask-13)"></path>
                        <path d="M17.6456268,98.9538853 C26.7429292,102.903507 33.6118541,105.484912 38.2524015,106.698102 C42.8929489,107.911293 49.1894634,108.771761 57.1419449,109.279508 C63.8567639,102.951606 68.7222524,97.7887949 71.7384103,93.7910739 C74.7545682,89.793353 78.7614411,83.1964273 83.7590289,74.0002969" id="Path-130" stroke="#FFFFFF" stroke-width="0.520561078" mask="url(#mask-13)"></path>
                    </g>
                    <g id="Path-121-+-Path-131-+-Path-132-+-Path-133-Mask-Copy-2" transform="translate(497.178968, 275.103315) rotate(50.000000) translate(-497.178968, -275.103315) translate(407.678968, 140.103315)">
                        <mask id="mask-16" fill="white">
                            <use xlink:href="#path-15"></use>
                        </mask>
                        <use id="Mask" fill="url(#linearGradient-14)" xlink:href="#path-15"></use>
                        <path d="M21.0779522,0.570481229 C48.7046189,36.8775973 60.0512856,65.8251629 55.1179522,87.4131779 C47.7179522,119.7952 95.0779522,128.626661 95.0779522,171.312054 C95.0779522,213.997448 132.077952,222.828908 132.077952,262.570481" id="Path-121" stroke="#FFFFFF" stroke-width="0.520561078" mask="url(#mask-16)"></path>
                        <path d="M31.7209651,221.505562 C59.4198898,215.659408 78.7102124,215.659408 89.5919328,221.505562 C100.473653,227.351716 111.849997,231.249152 123.720965,233.19787 C127.677954,222.479921 133.118815,212.249152 140.043546,202.505562 C150.430642,187.890177 165.269352,176.19787 169.720965,176.19787" id="Path-131" stroke="#FFFFFF" stroke-width="0.520561078" mask="url(#mask-16)"></path>
                        <path d="M3.24705462,117.346601 C23.000141,122.234368 37.3211287,129.566017 46.2100176,139.34155 C55.0989065,149.117084 69.4198941,152.53852 89.1729805,149.60586 C94.1112521,136.897667 98.0618694,126.144581 101.024832,117.346601 C103.987795,108.548621 111.395203,97.3067581 123.247055,83.6210117" id="Path-132" stroke="#FFFFFF" stroke-width="0.520561078" mask="url(#mask-16)"></path>
                    </g>
                    <path d="M0,380 C35.9770722,354.333333 66.3545447,337.449311 91.1324174,329.347934 C128.299226,317.195867 189.657783,304.636815 223.895262,303.328041 C246.720248,302.455525 279.325398,303.323531 321.71071,305.932059 L322,380 L0,380 Z" id="Path-297" fill="url(#linearGradient-17)"></path>
                    <path d="M222,308 L222,283.73689 C222,282.586898 222.932253,281.654646 224.082244,281.654646 L273.493613,281.654646 L273.493613,264.082244 C273.493613,262.932253 274.425865,262 275.575857,262 L320,262 L320,307.165119 L222,308 Z" id="Path-408" fill="url(#linearGradient-18)"></path>
                    <g id="Group-3-Copy-4" transform="translate(156.000000, 285.000000)">
                        <g id="Path-122" transform="translate(14.243243, 0.000000)">
                            <mask id="mask-20" fill="white">
                                <use xlink:href="#path-19"></use>
                            </mask>
                            <use id="Mask" fill="#2FBD90" xlink:href="#path-19"></use>
                            <path d="M0.584113525,30.5439815 C-0.0730141907,21.4939129 2.88406053,13.8983196 9.45533769,7.75720165 C16.0266149,1.61608368 18.8194076,-0.969650206 17.8337161,-3.46944695e-15" stroke="#FFFFFF" stroke-width="0.520561078" mask="url(#mask-20)"></path>
                        </g>
                        <g id="Path-123" transform="translate(0.000000, 7.729497)">
                            <mask id="mask-22" fill="white">
                                <use xlink:href="#path-21"></use>
                            </mask>
                            <use id="Mask" fill="#2AA980" xlink:href="#path-21"></use>
                            <path d="M4.196362,3.97706826 C6.74478389,6.00513403 8.52856767,7.77647717 9.54771335,9.29109769 C12.1944484,13.2245875 14.0767343,18.6599462 14.8990647,22.3346245" stroke="#FFFFFF" stroke-width="0.520561078" stroke-linecap="round" stroke-linejoin="round" mask="url(#mask-22)"></path>
                        </g>
                    </g>
                    <g id="Group-16-Copy" transform="translate(466.935842, 44.102119) rotate(134.000000) translate(-466.935842, -44.102119) translate(436.435842, 13.602119)" fill="url(#linearGradient-23)" fill-opacity="0.2">
                        <ellipse id="Oval" transform="translate(30.218410, 30.264916) rotate(109.000000) translate(-30.218410, -30.264916) " cx="30.2184099" cy="30.2649161" rx="23.6975826" ry="23.6688829"></ellipse>
                    </g>
                    <g id="Group-16-Copy-2" transform="translate(431.223923, 191.001245) rotate(54.000000) translate(-431.223923, -191.001245) translate(390.223923, 138.501245)">
                        <g id="Path-143" transform="translate(61.820324, 33.558274)">
                            <mask id="mask-26" fill="white">
                                <use xlink:href="#path-25"></use>
                            </mask>
                            <use id="Mask" fill="url(#linearGradient-24)" xlink:href="#path-25"></use>
                            <path d="M3.43446244,38.7210856 C6.86892489,33.5582742 9.44477172,27.2481713 11.1620029,19.7907771 C12.8792342,12.3333828 12.8792342,5.73645712 11.1620029,5.68434189e-14" stroke="#FFFFFF" stroke-width="0.520561078" mask="url(#mask-26)"></path>
                        </g>
                        <g id="Path-144" transform="translate(36.920471, 77.442171)">
                            <mask id="mask-29" fill="white">
                                <use xlink:href="#path-28"></use>
                            </mask>
                            <use id="Mask" fill="url(#linearGradient-27)" xlink:href="#path-28"></use>
                            <path d="M35.2032401,7.74421711 C24.9992847,7.15633618 17.8441546,7.15633618 13.7378498,7.74421711 C9.63154499,8.33209804 4.76605652,10.0530352 -0.858615611,12.9070285" stroke="#FFFFFF" stroke-width="0.520561078" mask="url(#mask-29)"></path>
                        </g>
                        <g id="Path-141" transform="translate(44.648012, 20.651246)">
                            <mask id="mask-32" fill="white">
                                <use xlink:href="#path-31"></use>
                            </mask>
                            <use id="Mask" fill="url(#linearGradient-30)" xlink:href="#path-31"></use>
                            <path d="M3.00515464,33.9885084 C3.82398969,27.4536918 4.8257079,22.147469 6.01030928,18.0698399 C7.19491065,13.9922109 9.48455228,7.96893087 12.8792342,0" stroke="#FFFFFF" stroke-width="0.520561078" mask="url(#mask-32)"></path>
                        </g>
                        <g id="Path-142" transform="translate(12.879234, 55.069988)">
                            <mask id="mask-35" fill="white">
                                <use xlink:href="#path-34"></use>
                            </mask>
                            <use id="Mask" fill="url(#linearGradient-33)" xlink:href="#path-34"></use>
                            <path d="M37.7790869,9.46515425 C31.184095,11.1425881 23.7427597,11.7162338 15.455081,11.1860914 C7.16740232,10.655949 1.15709304,9.22183472 -2.57584683,6.88374855" stroke="#FFFFFF" stroke-width="0.520561078" mask="url(#mask-35)"></path>
                        </g>
                        <g id="Path-139" transform="translate(30.051546, 1.720937)">
                            <mask id="mask-38" fill="white">
                                <use xlink:href="#path-37"></use>
                            </mask>
                            <use id="Mask" fill="url(#linearGradient-36)" xlink:href="#path-37"></use>
                            <path d="M1.71723122,26.6745256 C4.23112145,21.8211885 5.94835267,17.8056685 6.86892489,14.6279657 C7.78949711,11.4502628 8.64811272,6.57427429 9.44477172,0" stroke="#FFFFFF" stroke-width="0.520561078" mask="url(#mask-38)"></path>
                        </g>
                        <g id="Path-140" transform="translate(9.444772, 25.814057)">
                            <mask id="mask-41" fill="white">
                                <use xlink:href="#path-40"></use>
                            </mask>
                            <use id="Mask" fill="url(#linearGradient-39)" transform="translate(13.753189, 10.890545) rotate(-17.000000) translate(-13.753189, -10.890545) " xlink:href="#path-40"></use>
                            <path d="M27.4756996,12.9070285 C22.0995446,13.585968 17.5202613,13.8727908 13.7378498,13.7674971 C9.95543826,13.6622034 3.94512898,12.8017348 -4.29307806,11.1860914" stroke="#FFFFFF" stroke-width="0.520561078" mask="url(#mask-41)"></path>
                        </g>
                        <g id="Path-138">
                            <mask id="mask-44" fill="white">
                                <use xlink:href="#path-43"></use>
                            </mask>
                            <use id="Mask" fill="url(#linearGradient-42)" xlink:href="#path-43"></use>
                            <path d="M1.95496259,0.867160176 C6.19318108,6.89072857 9.54839973,11.1908409 12.0206186,13.7674971 C14.4928374,16.3441533 18.2927488,19.5014353 23.4203529,23.2393429" stroke="#FFFFFF" stroke-width="0.520561078" mask="url(#mask-44)"></path>
                        </g>
                        <path d="M24.0412371,24.0931199 C32.0549828,27.5349942 38.6377025,36.1396799 43.7893962,49.907177 C51.5169367,70.5584226 76.4167894,76.5817026 78.9926362,104.116697" id="Path-125" stroke="#D3A900" stroke-width="0.520561078"></path>
                    </g>
                    <g id="Group-19" transform="translate(320.000000, 193.000000)">
                        <rect id="Rectangle" fill="url(#linearGradient-45)" x="0" y="2" width="118" height="185"></rect>
                        <path d="M30.5,1 L30.5,188" id="Path-303" stroke="#FFFFFF" stroke-width="0.5"></path>
                        <path d="M81.5,1 L81.5,188" id="Path-303-Copy-2" stroke="#FFFFFF" stroke-width="0.5"></path>
                        <rect id="Rectangle" fill="#011148" x="0" y="0" width="118" height="10"></rect>
                    </g>
                    <g id="Group-34-Copy" transform="translate(328.000000, 111.000000) scale(-1, 1) translate(-328.000000, -111.000000) translate(270.000000, 21.000000)">
                        <path d="M61.371628,56 C52.8345204,62.8191953 47.8256767,66.4153757 46.3450971,66.7885413 C44.1242277,67.3482897 39,66.7677243 39,67.8889263 C39,69.0101282 41.6344197,72 43.4574433,72 C45.280467,72 62.2602376,64.2315068 65.1321869,62.6566506 C67.0468198,61.6067464 65.7933001,59.3878629 61.371628,56 Z" id="Path-59" fill="#FCB9A5" fill-rule="nonzero" transform="translate(52.500000, 64.000000) scale(-1, 1) translate(-52.500000, -64.000000) "></path>
                        <path d="M59.2023481,57.8431696 L61.7296958,55.8553374 C63.7795387,54.2430767 66.7242926,54.4770881 68.4937724,56.3928599 L80.492459,69.3835389 C82.3660924,71.4120751 82.2405188,74.5754086 80.2119826,76.4490419 C80.171165,76.4867427 80.1297217,76.5237604 80.0876701,76.5600797 L77.4944191,78.7998269 C75.435573,80.5780176 72.3328616,80.383854 70.5117634,78.3628616 L58.5789801,65.1202675 C56.7304488,63.0688307 56.8949361,59.9072819 58.9463729,58.0587505 C59.0292685,57.984054 59.1146414,57.9121534 59.2023481,57.8431696 Z" id="Path-58" fill="#FFAB29" fill-rule="nonzero" transform="translate(69.500000, 67.500000) scale(-1, 1) translate(-69.500000, -67.500000) "></path>
                        <path d="M42,18.3839788 C42,20.2487654 44.677382,24.363903 44.677382,29.1272321 C44.677382,33.8905612 49.6176124,39.8024843 56.4165581,37.4776755 C63.2155037,35.1528667 66.0682082,31.558363 64.641856,26.7363128 C63.2155037,21.9142626 59.3331161,11.6504524 56.4165581,12.0091638 C53.5,12.3678753 42,16.5191922 42,18.3839788 Z" id="Path-2" fill="#FCB9A5" fill-rule="nonzero" transform="translate(53.500000, 25.000000) scale(-1, 1) translate(-53.500000, -25.000000) "></path>
                        <path d="M44.2864955,164.083461 C42.8817388,165.172666 41.4071838,165.831754 39.8628306,166.060723 C37.5463009,166.404177 33.5593937,165.002487 31.0652016,167.159457 C28.5710094,169.316428 31.0652016,171.467849 32.3799532,171.899065 C33.6947049,172.330282 41.6488838,173 43.9326193,173 C46.2163548,173 51,173 51,170.097639 C51,168.162731 50.6615613,166.130185 49.9846839,164 L44.2864955,164.083461 Z" id="Path-70" fill="#000823" fill-rule="nonzero" transform="translate(40.500000, 168.500000) scale(-1, 1) translate(-40.500000, -168.500000) "></path>
                        <g id="Group-23" transform="translate(90.000000, 32.000000) rotate(6.000000) translate(-90.000000, -32.000000) translate(65.000000, 26.000000)">
                            <path d="M2.99778352,2.88470063 L22.0029553,2.15373249 C24.1271902,2.07203115 25.9154548,3.72783174 25.9971562,5.85206663 C25.9990519,5.90135498 26,5.95067521 26,6 C26,8.12580549 24.2766942,9.84911133 22.1508887,9.84911133 C22.1015639,9.84911133 22.0522436,9.84816322 22.0029553,9.84626751 L2.99778352,9.11529937 C1.32383644,9.05091679 2.05150965e-16,7.67518476 0,6 C-2.05150965e-16,4.32481524 1.32383644,2.94908321 2.99778352,2.88470063 Z" id="Rectangle" fill="url(#linearGradient-46)"></path>
                            <path d="M22.7424709,1.75855027 L45.7424709,0.274679298 C47.9470266,0.132449896 49.8494718,1.8042957 49.9917012,4.00885142 C49.9972323,4.09458307 50,4.18047065 50,4.26638053 L50,7.73361947 C50,9.94275847 48.209139,11.7336195 46,11.7336195 C45.9140901,11.7336195 45.8282025,11.7308518 45.7424709,11.7253207 L22.7424709,10.2414497 C20.6376903,10.1056574 19,8.35890491 19,6.2497485 L19,5.7502515 C19,3.64109509 20.6376903,1.89434256 22.7424709,1.75855027 Z" id="Rectangle-Copy-7" fill="url(#linearGradient-47)"></path>
                            <ellipse id="Oval" fill="url(#linearGradient-48)" cx="47.5" cy="6" rx="1.5" ry="4"></ellipse>
                        </g>
                        <path d="M2.29929088,85.7616636 C2.29929088,84.4586316 9.49966363,121.976349 10.7963186,128.265282 C11.6607552,132.457903 14.9950793,144.869476 20.7992909,165.5 L29,168.5 C26.243429,149.709385 24.3616468,137.880473 23.3546536,133.013265 C20.326294,118.375971 20.3047314,123.440806 20.3047314,121.75 C20.3047314,120.059194 25.8848467,82.9265858 20.3047314,76.4662414 C14.7246161,70.005897 2.29929088,87.0646956 2.29929088,85.7616636 Z" id="Path-57" fill="url(#linearGradient-49)" fill-rule="nonzero" transform="translate(15.649645, 121.750000) scale(-1, 1) translate(-15.649645, -121.750000) "></path>
                        <path d="M39.6842558,28 C41.814685,33.5807301 43.9039873,36.5689269 45.9521628,36.9645904 C49.024426,37.5580857 48.3180505,38.2353601 45.9521628,41.2749164 C43.5862751,44.3144728 34.7070318,50.9349142 36.4684861,46.5334125 C38.2299403,42.1319108 41.1385712,41.1536926 39.6842558,39.8892881 C38.7147121,39.0463518 36.8199602,37.5580857 34,35.4244897 L39.6842558,28 Z" id="Path-51" fill="#FCB9A5" fill-rule="nonzero" transform="translate(41.000000, 38.000000) scale(-1, 1) translate(-41.000000, -38.000000) "></path>
                        <path d="M13.940767,73.0652608 C12.5493737,92.586928 11.8522273,105.622585 11.8493277,112.172232 C11.8449844,121.996703 16.5931552,149.496327 16.5897144,157.27397 C16.5874192,162.461956 16.0580013,166.376753 18.3754599,165.982427 C19.5322519,165.785593 22.1663869,165.42886 23.6485039,165.428207 C28.0998193,165.426246 24.1408612,161.385399 24.1440951,154.075441 C24.147329,146.765482 26.9145263,131.112666 24.156671,125.648997 C21.3988157,120.185327 41.0062674,85.4248683 38.5831173,79.4787851 C36.967684,75.5147297 33.4678531,70.2540826 28.0836246,63.6968438 L13.940767,73.0652608 Z" id="Path-56" fill="url(#linearGradient-50)" fill-rule="nonzero" transform="translate(25.320207, 114.853316) scale(-1, 1) rotate(6.000000) translate(-25.320207, -114.853316) "></path>
                        <path d="M21.7889564,36.1002161 C21.0060302,36.864051 20.100196,37.8069119 19.0714538,38.9287991 C17.5283404,40.6116297 14.213217,38.033075 11.8749879,43.8946639 C9.53675888,49.7562527 11.9916009,59.6741583 17.9633658,66.6083206 C23.9351306,73.5424829 20.7505868,76.4997518 21.7889564,79.1965705 C22.4812027,80.9944496 24.1947522,81.9289261 26.9296047,82 C31.4528653,80.5986719 35.096335,79.0094887 37.8600138,77.2324504 C42.005532,74.5668929 47.0740578,74.2051719 45.7999656,69.5776978 C44.5258735,64.9502237 39.400747,62.0153105 38.4605684,55.8830784 C37.5203898,49.7508463 31.669041,37.9990726 28.3999828,36.8533204 C26.2206107,36.0894855 24.0169352,35.8384507 21.7889564,36.1002161 Z" id="Path-54" fill="url(#linearGradient-51)" transform="translate(28.500000, 59.000000) scale(-1, 1) translate(-28.500000, -59.000000) "></path>
                        <path d="M82,42.8253924 C71.6215726,50.811276 65.4840338,55.1785561 63.5873837,55.9272327 C60.7424086,57.0502475 45.8394289,44.8286548 44.5104794,43.1317281 C43.1815299,41.4348013 42.4515225,42.7603316 40.9220543,42.0975664 C39.3925861,41.4348013 39.7465744,37.9350831 42.1285269,36.4616414 C44.5104794,34.9881997 46.2546557,37.3900004 46.8946724,38.7975124 C47.3213502,39.7358537 47.7357056,40.8358717 48.1377387,42.0975664 C56.852272,45.3557321 61.6058462,47.2274235 62.3984612,47.7126408 C63.5873837,48.4404668 71.414706,36.4616414 76.707353,37.210318 C80.2357843,37.7094357 82,39.5811272 82,42.8253924 Z" id="Path-53" fill="#FCB9A5" fill-rule="nonzero" transform="translate(61.000000, 46.000000) scale(-1, 1) rotate(30.000000) translate(-61.000000, -46.000000) "></path>
                        <path d="M47.5897821,42.2761918 C42.1319634,46.0723765 39.0091957,48.4739464 38.2214788,49.4809014 C37.0399035,50.991334 40.8347472,58.2903444 43.7161976,56.8006558 C46.5976479,55.3109672 48.1803381,55.6535734 49.8338951,54.5615869 C51.487452,53.4696003 56.9956031,48.6586509 54.2415276,44.8831468 C52.4054772,42.3661441 50.1882287,41.4971591 47.5897821,42.2761918 Z" id="Path-55" fill="url(#linearGradient-52)" transform="translate(46.500000, 49.500000) scale(-1, 1) rotate(25.000000) translate(-46.500000, -49.500000) "></path>
                        <path d="M3.30303372,171.62247 C2.72339982,173.313955 2.92300466,175.221746 4.35881054,175.746616 C5.79461642,176.271486 7.95626191,176.024058 9.3008018,174.597116 C10.6453417,173.170173 11.4584104,171.598259 14.6729547,169.411269 C17.887499,167.224279 18.3838771,166.672101 17.7745238,165.431107 C17.1651704,164.190113 15.805454,163.717167 15.805454,163.082811 C15.805454,162.448456 9.07811745,165.652411 8.53768787,166.104648 C7.99725829,166.556885 3.88266763,169.930985 3.30303372,171.62247 Z" id="Path-69" fill="#000823" fill-rule="nonzero" transform="translate(10.500000, 169.500000) scale(-1, 1) rotate(-320.000000) translate(-10.500000, -169.500000) "></path>
                        <polygon id="Path-62" fill="#FFFFFF" fill-rule="nonzero" transform="translate(70.500000, 66.000000) scale(-1, 1) translate(-70.500000, -66.000000) " points="60 61.689479 67.5023527 56 81 70.0054849 73.6109704 76"></polygon>
                        <path d="M74,59.4243455 C74.7472131,60.3035721 76.0563321,60.4335616 76.9618562,59.7184442 L79.3145972,57.8604196 C80.1484465,57.2019057 80.2905839,55.9921065 79.6320701,55.1582572 C79.5884216,55.1029868 79.541771,55.0501549 79.492329,55 L79.492329,55 L74,59.4243455 Z" id="Path-61" fill="#8F5F14" fill-rule="nonzero" transform="translate(77.500000, 58.000000) scale(-1, 1) translate(-77.500000, -58.000000) "></path>
                        <path d="M74,61 L78,58" id="Path-86" stroke="#979797" stroke-linecap="round" stroke-linejoin="round" fill-rule="nonzero" transform="translate(76.000000, 59.500000) scale(-1, 1) translate(-76.000000, -59.500000) "></path>
                        <path d="M71,64 L75,61" id="Path-89" stroke="#979797" stroke-linecap="round" stroke-linejoin="round" fill-rule="nonzero" transform="translate(73.000000, 62.500000) scale(-1, 1) translate(-73.000000, -62.500000) "></path>
                        <path d="M68,68 L72,65" id="Path-90" stroke="#979797" stroke-linecap="round" stroke-linejoin="round" fill-rule="nonzero" transform="translate(70.000000, 66.500000) scale(-1, 1) translate(-70.000000, -66.500000) "></path>
                        <circle id="Oval-Copy-2" fill="#FFAB29" fill-rule="nonzero" transform="translate(8.000000, 19.000000) scale(-1, 1) translate(-8.000000, -19.000000) " cx="8" cy="19" r="6"></circle>
                        <path d="M20.8733093,17.3317034 C18.4798584,15.8072975 18.1839561,10.5186886 20.8648388,8.81878398 C23.5457216,7.11887933 28.5970581,4.81911507 32.8865837,8.40514519 C37.1761093,11.9911753 43.0026557,7.98960311 47.6531073,14.8045765 C52.3035589,21.6195499 51.1095064,18.3522951 53.076399,22.610715 C55.0432916,26.8691349 65.4826534,23.1834112 66.6005253,30.6470895 C67.7183972,38.1107677 61.9066308,49.8576693 58.0443261,50.7313314 C55.4694563,51.3137728 54.2625751,51.3125675 54.4236826,50.7277153 C49.5065819,44.4500556 46.8119513,39.8514705 46.3397908,36.9319599 C45.6315499,32.5526942 36.2818485,32.4360213 34.7249882,29.9865937 C33.1681279,27.537166 33.4316577,24.408632 30.7555927,18.8635887 C28.0795276,13.3185454 23.2667602,18.8561092 20.8733093,17.3317034 Z" id="Path-277" fill="#212121" transform="translate(42.852664, 28.838820) rotate(-76.000000) translate(-42.852664, -28.838820) "></path>
                    </g>
                    <g id="Group-27" transform="translate(332.035062, 172.273000) rotate(-3.000000) translate(-332.035062, -172.273000) translate(292.035062, 98.773000)" fill-rule="nonzero">
                        <path d="M56.7254795,50.091946 C49.1589427,54.1740398 44.424109,56.5959934 42.5209783,57.3578067 C40.6178475,58.1196201 38.4258613,58.7096439 35.9450196,59.1278782 L35.9454947,62.1285254 C39.8107325,63.3963966 43.2744009,63.5224646 46.3365,62.5067295 C50.9296486,60.983127 61.184846,56.4365446 61.1845363,54.4807041 C61.1843298,53.1768104 59.6979776,51.713891 56.7254795,50.091946 Z" id="Path-164-Copy" fill="#173155" transform="translate(48.564778, 56.638183) rotate(10.000000) translate(-48.564778, -56.638183) "></path>
                        <g id="Group-34" transform="translate(35.054459, 56.537749) rotate(2.000000) translate(-35.054459, -56.537749) translate(11.639473, 37.805760)">
                            <path d="M0.970267909,14.6394971 L7.02017492,35.5783679 L27.4586277,20.9417306 L22.6486464,1.87238127 C22.3784953,0.801357371 21.2912582,0.152121662 20.2202343,0.422272724 C20.0504943,0.465087307 19.88711,0.530001749 19.7342699,0.615351931 L2.86284825,10.0368238 C1.23820216,10.9440715 0.453751471,12.8518215 0.970267909,14.6394971 Z" id="Path-169" fill="#011148"></path>
                            <path d="M1.75343765,15.0052222 L7.43054349,34.2086263 L26.4552609,20.0538622 L22.3893061,2.85213319 C22.1352216,1.77718443 21.0578273,1.11174248 19.9828785,1.365827 C19.7985518,1.40939611 19.6213487,1.47892809 19.4565793,1.57233928 L12.61381,5.45164813 C12.5979126,5.46066068 12.5819537,5.46956419 12.5659343,5.47835801 L3.66448123,10.3647989 C2.01567236,11.2699103 1.22019959,13.2014887 1.75343765,15.0052222 Z" id="Path-169-Copy" fill="#33BEEF"></path>
                            <path d="M6.80883134,35.5904858 L27.6562606,37.0064378 C28.6995928,37.0773007 29.7291893,36.7367628 30.5245071,36.0577686 L45.5552073,23.225466 C45.9752387,22.8668687 46.0250408,22.2356653 45.6664434,21.815634 C45.4837757,21.6016721 45.2194304,21.4745524 44.9382465,21.4654549 L27.1898391,20.8912202 L6.80883134,35.5904858 Z" id="Path-170" fill="#011148"></path>
                            <path d="M10.7870419,10.2383933 L15.0605482,24.9677808 C15.2144389,25.4981921 15.7691752,25.8034223 16.2995865,25.6495316 C16.406104,25.6186272 16.5067384,25.570218 16.5973686,25.5062865 L23.3822046,20.7201903 C24.0700881,20.2349499 24.3804922,19.3709198 24.158664,18.5588642 L20.3487447,4.61173113 C20.2032101,4.07896652 19.6533399,3.76505456 19.1205753,3.91058914 C19.0447973,3.93128933 18.9717222,3.96084638 18.9028617,3.99864896 L11.7453763,7.92791403 C10.9243167,8.37865347 10.5260514,9.33884397 10.7870419,10.2383933 Z" id="Path-38" fill="#2791D9"></path>
                            <path d="M7.54074848,11.1328489 L4.15059302,12.9747666 C3.73353008,13.2013626 3.53321422,13.6899189 3.67115748,14.1440763 L7.15335962,25.6087007 C7.31386709,26.1371473 7.8723747,26.4354209 8.40082129,26.2749135 C8.4991585,26.2450451 8.5923037,26.200196 8.67697546,26.1419464 L12.1098747,23.780295 C12.4738365,23.5299087 12.6303762,23.0703689 12.4949485,22.6498683 L8.97000257,11.7049775 C8.80069604,11.1792839 8.23728713,10.8903751 7.71159355,11.0596816 C7.65249736,11.0787143 7.59530205,11.1032092 7.54074848,11.1328489 Z" id="Path-172" fill="#2791D9"></path>
                        </g>
                        <path d="M32.9184508,73.9309714 C31.9101128,73.3103238 30.9530384,73 30.0472278,73 C28.6885118,73 26,73.4570432 26,75.3128309 C26,77.1686186 26.7688496,77.7379137 28.4080387,77.7379137 C29.5008314,77.7379137 31.0043021,77.7379137 32.9184508,77.7379137 L32.9184508,73.9309714 Z" id="Path-171" fill="#FDB595"></path>
                        <g id="Group-24" transform="translate(0.000000, 0.000000)">
                            <path d="M52.8149802,79.1268012 C38.4082671,83.1551701 30.4841888,86.1806228 29.0427453,88.2031591 C26.8805801,91.2369635 7.73153337,123.355856 7.55524024,125.593067 C7.43771149,127.084541 8.50504034,127.86581 10.7572268,127.936874 L35.9201528,96.562432 L55.6129535,86.9394888 L52.8149802,79.1268012 Z" id="Path-166" fill="url(#linearGradient-53)"></path>
                            <path d="M51.8748234,77.3487154 C41.9137198,84.3701392 36.7896701,88.0102243 36.5026742,88.2689707 C26.9227474,96.9059281 26.5169787,92.7493301 26.3976054,105.456883 C26.3180232,113.928586 26.3319061,125.727301 26.4392542,140.853031 L31.5591278,140.853031 L35.58709,100.980203 C46.7163347,99.6741581 54.1668049,97.4444664 57.9385009,94.2911284 C63.5960448,89.5611214 68.8599834,88.6803951 66.9661313,79.9354372 C65.7035632,74.1054653 60.6731273,73.2432247 51.8748234,77.3487154 Z" id="Path-165" fill="url(#linearGradient-54)"></path>
                            <path d="M27.8129333,135 C24.2511174,135.714092 21.5043413,137.11283 19.5726048,139.196213 C16.675,142.321289 18.0843593,146.591801 21.3400479,146.591801 C24.5957364,146.591801 31.5776271,142.288084 33.2410208,140.671464 C34.9044145,139.054843 33.4188375,136.883539 32.2982112,135.94177 C31.5511271,135.313923 30.0560344,135 27.8129333,135 Z" id="Path-167" fill="#13486C"></path>
                            <path d="M64.4920689,33.8089855 L64.4920689,39.350292 C61.7277826,41.0864448 59.6196361,41.9545212 58.1676294,41.9545212 C56.7156228,41.9545212 56.3011356,41.0864448 56.9241679,39.350292 L58.523909,33.1614989 C58.161833,33.033942 57.8247157,32.8883201 57.512557,32.7246333 C54.4563741,31.1220607 51.8227375,28.0224534 52.9898121,24.7771093 C53.7678618,22.6135465 55.2754434,18.2079675 57.512557,11.5603722 L70.0566242,18.9552886 L66.8147503,33.6209878 C65.9997954,33.7131323 65.2255683,33.7757982 64.4920689,33.8089855 Z" id="Combined-Shape" fill="#FDB595"></path>
                            <path d="M64.3277641,17.2432801 C54.1575908,13.9930409 51.608067,9.41646156 56.6791926,3.51354201 C64.285881,-5.34083731 73.5055753,9.76930383 76.1078959,11.7195201 C78.7102164,13.6697363 82.8192365,19.2915434 76.1078959,25.099655 C69.3965553,30.9077667 72.4011328,33.5197127 68.3644485,33.5197127 C64.3277641,33.5197127 67.2225257,31.5565984 67.2225257,27.5299855 C67.2225257,24.8455769 66.2576052,21.4166751 64.3277641,17.2432801 Z" id="Path-158" fill="url(#linearGradient-55)"></path>
                            <path d="M64.4430456,37.6401856 C68.4356769,42.8631541 69.8733564,49.9361965 68.7560843,58.8593129 C67.3487216,70.0992426 69.563147,86.0743442 66.145746,85.0920396 C60.39939,83.4402954 49.8051746,84.4121222 46.3438999,80.8739347 C42.8826251,77.3357473 45.4336188,70.9731554 46.3438999,62.8050593 C47.2541809,54.6369632 48.1771507,52.8910884 50.3855477,46.4098429 C51.8578124,42.0890126 54.0904951,39.1657935 57.0835959,37.6401856 C56.4796611,40.6914014 57.5552523,41.4542053 60.3103696,39.9285974 C63.065487,38.4029895 64.4430456,37.6401856 64.4430456,37.6401856 Z" id="Path-163" fill="url(#linearGradient-56)"></path>
                            <path d="M54.4808109,55.244907 C47.5246073,63.430504 42.8624942,67.994267 40.4944717,68.936196 C36.9424379,70.3490896 33.2917238,70.415351 31.6048731,71.5253992 C30.480306,72.2654313 30.1566545,73.5653071 30.6339188,75.4250266 C35.4422945,76.9900309 39.7514934,77.1444922 43.5615156,75.8884105 C49.2765487,74.004288 64.4882793,62.7378144 65.1850662,59.3993895 C66.0197384,55.4003319 64.6795229,51.6290801 63.1437388,50.7276297 C61.935284,50.0183099 59.0476413,51.524069 54.4808109,55.244907 Z" id="Path-164" fill="url(#linearGradient-57)" transform="translate(47.931076, 63.642293) rotate(-9.000000) translate(-47.931076, -63.642293) "></path>
                            <path d="M13.8620852,125.262054 C13.9032801,126.889636 13.5417542,128.182071 12.7775076,129.139359 C12.013261,130.096647 11.0668689,130.799084 9.93833131,131.246671 C7.41687706,130.09703 5.42302987,128.594313 3.95678976,126.738519 C1.75742959,123.954829 -2.15049177,118.024826 1.4865609,115.872166 C3.24656401,114.830474 9.93833131,113.62973 9.93833131,119.371591 C9.93833131,123.199498 11.2462493,125.162986 13.8620852,125.262054 Z" id="Path-168" fill="#13486C"></path>
                        </g>
                    </g>
                </g>
            </g>
        </g>
    </g>
</svg>