<?xml version="1.0" encoding="utf-8"?>
<!-- Generator: Adobe Illustrator 21.1.0, SVG Export Plug-In . SVG Version: 6.00 Build 0)  -->
<svg version="1.1" id="Layer_1" xmlns="http://www.w3.org/2000/svg" xmlns:xlink="http://www.w3.org/1999/xlink" x="0px" y="0px"
	 width="98px" height="54.36px" viewBox="0 0 98 54.36" style="enable-background:new 0 0 98 54.36;" xml:space="preserve">
<style type="text/css">
	.st0{fill:#79C143;}
	.st1{fill:#FFFFFF;}
	.st2{clip-path:url(#SVGID_2_);}
	.st3{fill:url(#SVGID_3_);}
	.st4{clip-path:url(#SVGID_5_);}
	.st5{fill:url(#SVGID_6_);}
	.st6{fill:#989898;}
	.st7{fill:#E5E5E5;}
	.st8{fill:#B3B3B3;}
	.st9{clip-path:url(#SVGID_8_);}
	.st10{fill:url(#SVGID_9_);}
	.st11{clip-path:url(#SVGID_11_);}
	.st12{fill:url(#SVGID_12_);}
	.st13{opacity:0.84;fill:#FFFFFF;enable-background:new    ;}
	.st14{fill:#FAFBFC;}
	.st15{fill:#F7F8F8;}
	.st16{fill:#9B9C9C;}
	.st17{fill:#F5F6F6;}
	.st18{fill:#9E9E9E;}
	.st19{fill:#F3F3F3;}
	.st20{fill:#A1A0A0;}
	.st21{fill:#F1F0F0;}
	.st22{fill:#A3A3A2;}
	.st23{fill:#EDEDEE;}
	.st24{fill:#A7A6A6;}
	.st25{fill:#EBEBEB;}
	.st26{fill:#A9A8A8;}
	.st27{fill:#E9E8E8;}
	.st28{fill:#ACACAC;}
	.st29{fill:#E3E3E3;}
	.st30{fill:#B0B1B1;}
	.st31{fill:#E0E1E0;}
	.st32{fill:#DFDFDE;}
	.st33{fill:#B5B6B6;}
	.st34{fill:#D9D9D8;}
	.st35{fill:#B9B9B9;}
	.st36{fill:#D7D6D6;}
	.st37{fill:#BBBBBB;}
	.st38{fill:#BDBDBD;}
	.st39{fill:#D4D4D4;}
	.st40{fill:#C0BFBF;}
	.st41{fill:#D2D2D2;}
	.st42{fill:#C2C2C2;}
	.st43{fill:#CCCCCC;}
	.st44{fill:#C8C7C6;}
	.st45{fill:#CFD0D0;}
	.st46{fill:#C9C9C9;}
	.st47{fill:#DCDBDB;}
	.st48{fill:#FDFEFF;}
	.st49{fill:#C4C4C4;}
	.st50{fill:#AEAEAE;}
	.st51{fill:#969696;}
	.st52{fill:#959494;}
	.st53{fill:#908F8F;}
	.st54{fill:#8C8C8C;}
	.st55{fill:#8B8A8B;}
	.st56{fill:#878787;}
	.st57{fill:#838383;}
	.st58{fill:#919191;}
	.st59{fill:#818181;}
	.st60{fill:#858585;}
	.st61{clip-path:url(#SVGID_14_);}
	.st62{fill:url(#SVGID_15_);}
	.st63{clip-path:url(#SVGID_17_);}
	.st64{fill:url(#SVGID_18_);}
	.st65{fill:#DBE8A0;}
	.st66{fill:#83C341;}
	.st67{fill:#6FB944;}
	.st68{fill:#61A444;}
	.st69{opacity:0.24;fill:#50833C;enable-background:new    ;}
	.st70{fill:#666666;}
</style>
<g>
	<g>
		<path class="st0" d="M25.07,19.93h58.59c8,0,14.35,6.49,14.35,14.35c0,8-6.49,14.35-14.35,14.35H25.07
			c-8,0-14.35-6.49-14.35-14.35S17.06,19.93,25.07,19.93"/>
		<path class="st1" d="M30.05,31.86h53.76c3.93,0,7.1,3.47,7.1,7.4l0,0c0,3.93-3.17,7.1-7.1,7.1H30.05c-3.93,0-7.1-3.17-7.1-7.1l0,0
			C22.95,35.33,26.12,31.86,30.05,31.86"/>
		<path class="st1" d="M20.08,14.5c11.02,0.15,19.93,9.06,19.78,20.08S30.8,54.51,19.78,54.36C8.91,54.21,0,45.3,0,34.43
			C0,23.4,9.06,14.34,20.08,14.5"/>
		<g>
			<g>
				<g>
					<defs>
						<path id="SVGID_1_" d="M20.39,0L20.39,0c8,0,14.65,6.49,14.65,14.65v11.02c-1.51-1.81-3.32-3.47-5.44-4.53v-6.49
							c0-4.98-4.08-9.06-9.06-9.06s-9.06,4.08-9.06,9.06v6.49c-2.11,1.21-3.93,2.72-5.44,4.53V14.65C5.89,6.49,12.38,0,20.39,0"/>
					</defs>
					<clipPath id="SVGID_2_">
						<use xlink:href="#SVGID_1_"  style="overflow:visible;"/>
					</clipPath>
					<g class="st2">
						
							<linearGradient id="SVGID_3_" gradientUnits="userSpaceOnUse" x1="-215.6869" y1="-356.3401" x2="-215.4681" y2="-356.3401" gradientTransform="matrix(2.563186e-15 41.86 33.53 -2.053120e-15 11968.3926 9043.5996)">
							<stop  offset="0" style="stop-color:#676767"/>
							<stop  offset="1" style="stop-color:#333333"/>
						</linearGradient>
						<rect x="5.74" y="0" class="st3" width="29.14" height="25.67"/>
					</g>
				</g>
			</g>
		</g>
		<g>
			<g>
				<g>
					<defs>
						<path id="SVGID_4_" d="M34.43,24.91c-1.36-1.51-3.02-2.87-4.83-3.93v-6.34c0-4.98-4.08-9.06-9.06-9.06s-9.06,4.08-9.06,9.06
							v6.49C9.66,22.2,8,23.4,6.64,25.07V14.95c0-8.15,6.34-14.8,13.89-14.8s14.04,6.64,14.04,14.8v9.97h-0.14V24.91z"/>
					</defs>
					<clipPath id="SVGID_5_">
						<use xlink:href="#SVGID_4_"  style="overflow:visible;"/>
					</clipPath>
					<g class="st4">
						
							<linearGradient id="SVGID_6_" gradientUnits="userSpaceOnUse" x1="-215.2023" y1="-356.3406" x2="-214.6772" y2="-356.3406" gradientTransform="matrix(1.969232e-15 32.16 31.33 -1.918409e-15 11184.6113 6927.354)">
							<stop  offset="0" style="stop-color:#CCCCCC"/>
							<stop  offset="1" style="stop-color:#989898"/>
						</linearGradient>
						<rect x="6.49" y="0.15" class="st5" width="27.94" height="24.76"/>
					</g>
				</g>
			</g>
		</g>
		<path class="st6" d="M33.67,24.16c-1.06-1.06-2.27-1.96-3.62-2.87V15.1c0-2.87-1.21-5.44-3.32-7.4c-3.47-3.32-9.06-3.32-12.68,0
			c-2.11,1.81-3.32,4.53-3.32,7.4v6.19c-1.36,0.76-2.57,1.66-3.62,2.87V15.4c0-8,6.04-14.35,13.29-14.35S33.69,7.54,33.69,15.4v8.76
			H33.67z"/>
		<path class="st7" d="M32.92,23.56c-1.06-0.91-2.27-1.81-3.47-2.57v-6.34c0-4.98-4.08-9.06-9.06-9.06s-9.06,4.08-9.06,9.06v6.49
			c-1.21,0.76-2.42,1.51-3.47,2.57V14.8c0-7.7,5.59-13.89,12.53-13.89S32.92,7.25,32.92,14.8V23.56z"/>
		<g>
			<path class="st8" d="M32.62,23.25c-0.45-0.45-1.06-0.91-1.66-1.21c0.3-3.32,0.3-6.64,0-9.82C32.01,15.7,32.47,19.48,32.62,23.25"
				/>
		</g>
		<g>
			<path class="st8" d="M8.31,23.25c0.45-0.45,1.06-0.91,1.66-1.21c-0.3-3.32-0.3-6.64,0-9.82C8.91,15.7,8.31,19.48,8.31,23.25"/>
		</g>
		<g>
			<g>
				<g>
					<defs>
						<path id="SVGID_7_" d="M30.65,21.74c-0.3-0.3-0.76-0.45-1.21-0.76v-6.34c0-4.98-4.08-9.06-9.06-9.06s-9.06,4.08-9.06,9.06
							v6.49c-0.45,0.15-0.76,0.45-1.21,0.76v-7.4c0-5.89,4.68-10.72,10.27-10.72S30.65,8.6,30.65,14.49
							C30.65,14.49,30.65,21.74,30.65,21.74z"/>
					</defs>
					<clipPath id="SVGID_8_">
						<use xlink:href="#SVGID_7_"  style="overflow:visible;"/>
					</clipPath>
					<g class="st9">
						
							<linearGradient id="SVGID_9_" gradientUnits="userSpaceOnUse" x1="-213.8717" y1="-356.7953" x2="-212.9639" y2="-356.7953" gradientTransform="matrix(1.258325e-15 20.55 22.67 -1.388137e-15 8108.938 4398.729)">
							<stop  offset="0" style="stop-color:#989898"/>
							<stop  offset="1" style="stop-color:#676767"/>
						</linearGradient>
						<rect x="10.12" y="3.77" class="st10" width="20.54" height="17.97"/>
					</g>
				</g>
			</g>
		</g>
		<g>
			<g>
				<g>
					<defs>
						<path id="SVGID_10_" d="M29.45,14.04c-0.3-4.98-4.53-8.91-9.66-8.61c-4.53,0.3-8.31,3.93-8.61,8.46
							C11.78,1.81,29.14,1.81,29.45,14.04L29.45,14.04z"/>
					</defs>
					<clipPath id="SVGID_11_">
						<use xlink:href="#SVGID_10_"  style="overflow:visible;"/>
					</clipPath>
					<g class="st11">
						
							<linearGradient id="SVGID_12_" gradientUnits="userSpaceOnUse" x1="-213.9762" y1="-356.7354" x2="-213.0683" y2="-356.7354" gradientTransform="matrix(1.299350e-15 21.22 22.29 -1.364869e-15 7972.0972 4543.3838)">
							<stop  offset="0" style="stop-color:#333333"/>
							<stop  offset="1" style="stop-color:#FFFFFF"/>
						</linearGradient>
						<rect x="11.33" y="1.81" class="st12" width="18.27" height="12.23"/>
					</g>
				</g>
			</g>
		</g>
		<path class="st13" d="M12.53,8.15c3.02-4.38,9.06-5.29,13.29-2.27c0.91,0.6,1.66,1.36,2.27,2.27C23.86,3.47,17.06,3.32,12.53,8.15
			"/>
		<g>
			<path class="st1" d="M32.62,17.21c2.42-20.08-25.97-22.8-24.46,0.6C8.76-2.11,32.47-1.06,32.62,17.21"/>
		</g>
		<path class="st1" d="M20.39,15.25c10.72,0,19.48,8.61,19.48,19.33s-8.61,19.48-19.33,19.48S1.21,45.45,1.06,34.73c0,0,0,0,0-0.15
			C1.06,23.86,9.66,15.25,20.39,15.25L20.39,15.25"/>
		<g>
			<path class="st1" d="M39.71,36.39c0-0.15,0-0.15,0-0.3l-19.63-1.66L39.71,36.39z"/>
			<path class="st6" d="M0.6,32.46c0,0.15,0,0.15,0,0.3l19.48,1.66L0.6,32.46z"/>
			<path class="st14" d="M39.71,36.09c0-0.15,0-0.15,0-0.3l-19.63-1.51L39.71,36.09z"/>
			<path class="st6" d="M0.45,32.77c0,0.15,0,0.15,0,0.3l19.63,1.36L0.45,32.77z"/>
			<path class="st15" d="M39.71,35.79c0-0.15,0-0.15,0-0.3l-19.63-1.21L39.71,35.79z"/>
			<path class="st16" d="M0.45,32.92c0,0.15,0,0.15,0,0.3l19.63,1.21L0.45,32.92z"/>
			<path class="st17" d="M39.71,35.64c0-0.15,0-0.15,0-0.3l-19.63-0.91L39.71,35.64z"/>
			<path class="st18" d="M0.45,33.22c0,0.15,0,0.15,0,0.3l19.63,0.91L0.45,33.22z"/>
			<path class="st17" d="M39.71,35.33c0-0.15,0-0.15,0-0.3l-19.63-0.75L39.71,35.33z"/>
			<path class="st18" d="M0.45,33.52c0,0.15,0,0.15,0,0.3l19.63,0.76L0.45,33.52z"/>
			<path class="st19" d="M39.71,35.18c0-0.15,0-0.15,0-0.3l0,0l-19.63-0.45L39.71,35.18z"/>
			<path class="st20" d="M0.45,33.67c0,0.15,0,0.15,0,0.3l19.63,0.45L0.45,33.67z"/>
			<path class="st21" d="M20.08,34.43l19.63,0.45c0-0.15,0-0.15,0-0.3L20.08,34.43z"/>
			<path class="st22" d="M0.45,33.97c0,0.15,0,0.15,0,0.3l19.63,0.15L0.45,33.97z"/>
			<path class="st23" d="M39.71,34.58c0-0.15,0-0.15,0-0.3H20.08L39.71,34.58z"/>
			<path class="st24" d="M0.45,34.13c0,0.15,0,0.15,0,0.3h19.63L0.45,34.13z"/>
			<path class="st23" d="M39.71,34.43c0-0.15,0-0.15,0-0.3l-19.63,0.3H39.71z"/>
			<path class="st24" d="M0.45,34.43c0,0.15,0,0.15,0,0.3l19.63-0.3H0.45z"/>
			<path class="st25" d="M39.71,34.13c0-0.15,0-0.15,0-0.3l-19.63,0.45L39.71,34.13z"/>
			<path class="st26" d="M0.45,34.73v0.15c0,0,0,0,0,0.15l19.63-0.45L0.45,34.73z"/>
			<path class="st27" d="M39.71,33.97c0-0.15,0-0.15,0-0.3l-19.63,0.76L39.71,33.97z"/>
			<path class="st28" d="M0.45,34.88c0,0.15,0,0.15,0,0.3l19.63-0.76L0.45,34.88z"/>
			<path class="st7" d="M39.71,33.67c0-0.15,0-0.15,0-0.3l-19.63,1.06L39.71,33.67z"/>
			<path class="st28" d="M0.45,35.18c0,0.15,0,0.15,0,0.3l19.63-1.06L0.45,35.18z"/>
			<path class="st29" d="M39.71,33.37c0-0.15,0-0.15,0-0.3l-19.63,1.21L39.71,33.37z"/>
			<path class="st30" d="M0.45,35.33c0,0.15,0,0.15,0,0.3l19.63-1.21L0.45,35.33z"/>
			<path class="st29" d="M39.71,33.22c0-0.15,0-0.15,0-0.3l-19.63,1.51L39.71,33.22z"/>
			<path class="st30" d="M0.45,35.64c0,0.15,0,0.15,0,0.3l19.63-1.51L0.45,35.64z"/>
			<path class="st31" d="M39.71,32.92c0-0.15,0-0.15,0-0.3l-19.63,1.66L39.71,32.92z"/>
			<path class="st8" d="M0.45,35.94c0,0.15,0,0.15,0,0.3l19.63-1.66L0.45,35.94z"/>
			<path class="st32" d="M39.71,32.77c0-0.15,0-0.15,0-0.3l-19.63,1.96L39.71,32.77z"/>
			<path class="st33" d="M0.45,36.09c0,0.15,0,0.15,0,0.3l19.63-1.96L0.45,36.09z"/>
			<path class="st32" d="M39.71,32.46v-0.3l-19.48,2.12L39.71,32.46z"/>
			<path class="st33" d="M0.45,36.39c0,0.15,0,0.15,0,0.3l19.63-2.11L0.45,36.39z"/>
			<path class="st34" d="M39.56,32.16c0-0.15,0-0.15,0-0.3l-19.48,2.42L39.56,32.16z"/>
			<path class="st35" d="M0.45,36.54c0,0.15,0,0.15,0,0.3l19.63-2.42L0.45,36.54z"/>
			<path class="st36" d="M39.56,32.01c0-0.15,0-0.15,0-0.3l-19.48,2.72L39.56,32.01z"/>
			<path class="st37" d="M0.45,36.84v0.3l19.63-2.72L0.45,36.84z"/>
			<path class="st36" d="M39.56,31.71c0-0.15,0-0.15,0-0.3l-19.48,2.87L39.56,31.71z"/>
			<path class="st38" d="M0.6,37.15c0,0.15,0,0.15,0,0.3l19.48-2.87L0.6,37.15z"/>
			<path class="st39" d="M39.56,31.56v-0.3l-19.33,3.17L39.56,31.56z"/>
			<path class="st40" d="M0.6,37.3v0.3l19.48-3.17L0.6,37.3z"/>
			<path class="st41" d="M39.41,31.26c0-0.15,0-0.15,0-0.3l-19.33,3.32L39.41,31.26z"/>
			<path class="st40" d="M0.6,37.6c0,0.15,0,0.15,0,0.3l19.48-3.47L0.6,37.6z"/>
			<path class="st41" d="M39.41,30.95c0-0.15,0-0.15,0-0.3l-19.33,3.63L39.41,30.95z"/>
			<path class="st42" d="M0.6,37.75c0,0.15,0,0.15,0,0.3l19.48-3.62L0.6,37.75z"/>
			<path class="st43" d="M39.41,30.8c0-0.15,0-0.15,0-0.3l-19.18,3.93L39.41,30.8z"/>
			<path class="st42" d="M0.6,38.05c0,0.15,0,0.15,0,0.3l19.48-3.93L0.6,38.05z"/>
			<path class="st43" d="M39.41,30.5v-0.3l-19.18,4.08L39.41,30.5z"/>
			<path class="st44" d="M0.76,38.35v0.3l19.33-4.08L0.76,38.35z"/>
			<path class="st43" d="M39.26,30.35v-0.3l-19.18,4.38L39.26,30.35z"/>
			<path class="st44" d="M0.76,38.5c0,0.15,0,0.15,0,0.3l19.33-4.38L0.76,38.5z"/>
			<path class="st45" d="M39.26,30.05c0-0.15,0-0.15,0-0.3l-19.03,4.53L39.26,30.05z"/>
			<path class="st46" d="M0.76,38.81c0,0.15,0,0.15,0,0.3l19.33-4.68L0.76,38.81z"/>
			<path class="st45" d="M39.26,29.9c0-0.15,0-0.15,0-0.3l-19.03,4.83L39.26,29.9z"/>
			<path class="st43" d="M0.76,38.96c0,0.15,0,0.15,0,0.3l19.18-4.83L0.76,38.96z"/>
			<path class="st45" d="M39.11,29.6v-0.3l-19.03,4.98L39.11,29.6z"/>
			<path class="st43" d="M0.91,39.26v0.3l19.18-5.13L0.91,39.26z"/>
			<path class="st41" d="M39.11,29.29v-0.3l-18.88,5.29L39.11,29.29z"/>
			<path class="st45" d="M0.91,39.56v0.3l19.18-5.29L0.91,39.56z"/>
			<path class="st41" d="M38.96,29.14c0-0.15,0-0.15,0-0.3l-18.88,5.44L38.96,29.14z"/>
			<path class="st41" d="M1.06,39.71c0,0.15,0,0.15,0,0.3l19.03-5.59L1.06,39.71z"/>
			<path class="st41" d="M38.96,28.84c0-0.15,0-0.15-0.15-0.3l-18.73,5.74L38.96,28.84z"/>
			<path class="st39" d="M1.06,40.01c0,0.15,0,0.15,0,0.3l19.03-5.74L1.06,40.01z"/>
			<path class="st41" d="M38.81,28.69l-0.15-0.3l-18.73,5.89L38.81,28.69z"/>
			<path class="st39" d="M1.06,40.17v0.3l18.88-6.04L1.06,40.17z"/>
			<path class="st39" d="M38.81,28.39l-0.15-0.3l-18.58,6.19L38.81,28.39z"/>
			<path class="st36" d="M1.21,40.47v0.3l18.88-6.34L1.21,40.47z"/>
			<path class="st39" d="M38.66,28.24c0-0.15,0-0.15-0.15-0.3l-18.57,6.49L38.66,28.24z"/>
			<path class="st34" d="M1.21,40.62c0,0.15,0,0.15,0,0.3l18.72-6.49L1.21,40.62z"/>
			<path class="st39" d="M38.66,27.93l-0.15-0.15l-18.42,6.64L38.66,27.93z"/>
			<path class="st47" d="M1.36,40.92c0,0.15,0,0.15,0.15,0.3l18.72-6.8L1.36,40.92z"/>
			<path class="st36" d="M38.51,27.78l-0.15-0.15l-18.42,6.8L38.51,27.78z"/>
			<path class="st32" d="M1.36,41.07l0.15,0.3l18.57-6.95L1.36,41.07z"/>
			<path class="st36" d="M38.51,27.48l-0.15-0.15l-18.27,7.1L38.51,27.48z"/>
			<path class="st32" d="M1.51,41.37v0.3l18.57-7.25L1.51,41.37z"/>
			<path class="st36" d="M38.35,27.33l-0.15-0.15l-18.12,7.25L38.35,27.33z"/>
			<path class="st31" d="M1.51,41.68c0,0.15,0,0.15,0.15,0.3l18.42-7.4L1.51,41.68z"/>
			<path class="st36" d="M38.35,27.03l-0.15-0.15l-18.12,7.55L38.35,27.03z"/>
			<path class="st31" d="M1.66,41.83c0,0.15,0,0.15,0.15,0.3l18.42-7.7L1.66,41.83z"/>
			<path class="st34" d="M38.2,26.88l-0.15-0.15l-17.97,7.7L38.2,26.88z"/>
			<path class="st29" d="M1.66,42.13l0.15,0.15l18.27-7.85L1.66,42.13z"/>
			<path class="st34" d="M38.05,26.58l-0.15-0.15l-17.97,8L38.05,26.58z"/>
			<path class="st7" d="M1.81,42.28l0.15,0.3l18.12-8.15L1.81,42.28z"/>
			<path class="st34" d="M38.05,26.42l-0.15-0.15l-17.82,8.15L38.05,26.42z"/>
			<path class="st27" d="M1.96,42.58l0.15,0.3l18.12-8.31L1.96,42.58z"/>
			<path class="st34" d="M37.9,26.12l-0.15-0.15l-17.67,8.46L37.9,26.12z"/>
			<path class="st27" d="M1.96,42.73l0.15,0.15l17.97-8.61L1.96,42.73z"/>
			<path class="st47" d="M37.75,25.97v-0.15l-17.52,8.61L37.75,25.97z"/>
			<path class="st25" d="M2.11,43.03l0.15,0.3l17.97-8.76L2.11,43.03z"/>
			<path class="st47" d="M37.75,25.82l-0.15-0.15l-17.52,8.91L37.75,25.82z"/>
			<path class="st23" d="M2.11,43.19l0.15,0.15l17.82-9.06L2.11,43.19z"/>
			<path class="st47" d="M37.6,25.52l-0.15-0.15l-17.37,9.06L37.6,25.52z"/>
			<path class="st23" d="M2.27,43.34l0.15,0.15l17.67-9.21L2.27,43.34z"/>
			<path class="st32" d="M37.45,25.37l-0.15-0.15l-17.22,9.36L37.45,25.37z"/>
			<path class="st19" d="M2.42,43.64l0.15,0.15l17.52-9.51L2.42,43.64z"/>
			<path class="st32" d="M37.3,25.07l-0.15-0.15l-17.21,9.51L37.3,25.07z"/>
			<path class="st19" d="M2.57,43.79l0.15,0.15l17.52-9.66L2.57,43.79z"/>
			<path class="st32" d="M37.3,24.91l-0.15-0.15l-17.06,9.66L37.3,24.91z"/>
			<path class="st17" d="M2.72,44.09l0.15,0.15l17.37-9.82L2.72,44.09z"/>
			<path class="st32" d="M37.15,24.76L37,24.61l-16.92,9.97L37.15,24.76z"/>
			<path class="st17" d="M2.72,44.24l0.15,0.15l17.21-10.11L2.72,44.24z"/>
			<path class="st32" d="M37,24.46l-0.15-0.15L20.08,34.43L37,24.46z"/>
			<path class="st15" d="M2.87,44.54l0.15,0.15l17.06-10.27L2.87,44.54z"/>
			<path class="st31" d="M36.84,24.31l-0.15-0.15L20.08,34.43L36.84,24.31z"/>
			<path class="st14" d="M3.02,44.7l0.15,0.15l16.91-10.57L3.02,44.7z"/>
			<path class="st31" d="M36.69,24.01l-0.15-0.15L19.93,34.43L36.69,24.01z"/>
			<path class="st48" d="M3.17,44.85L3.32,45l16.76-10.72L3.17,44.85z"/>
			<path class="st29" d="M36.69,23.86l-0.15-0.15L20.08,34.43L36.69,23.86z"/>
			<path class="st1" d="M3.32,45.15l0.15,0.15l16.76-10.87L3.32,45.15z"/>
			<path class="st29" d="M36.54,23.71l-0.15-0.15L20.08,34.43L36.54,23.71z"/>
			<path class="st1" d="M3.47,45.3l0.15,0.15l16.61-11.17L3.47,45.3z"/>
			<path class="st29" d="M36.39,23.4l-0.15-0.15L20.08,34.43L36.39,23.4z"/>
			<path class="st48" d="M3.62,45.6l0.15,0.15l16.46-11.33L3.62,45.6z"/>
			<path class="st29" d="M36.24,23.25l-0.15-0.15L20.08,34.43L36.24,23.25z"/>
			<path class="st48" d="M3.62,45.75l0.15,0.15l16.31-11.48L3.62,45.75z"/>
			<path class="st7" d="M36.09,23.1l-0.15-0.15L20.08,34.43L36.09,23.1z"/>
			<path class="st14" d="M3.78,45.9l0.15,0.15l16.15-11.77L3.78,45.9z"/>
			<path class="st7" d="M35.94,22.8l-0.15-0.15l-15.7,11.78L35.94,22.8z"/>
			<path class="st14" d="M3.93,46.21l0.15,0.15l16.01-11.93L3.93,46.21z"/>
			<path class="st7" d="M35.79,22.65l-0.15-0.15L20.08,34.43L35.79,22.65z"/>
			<path class="st15" d="M4.08,46.36l0.15,0.15l15.86-12.08L4.08,46.36z"/>
			<path class="st27" d="M35.64,22.5l-0.15-0.15l-15.4,12.08L35.64,22.5z"/>
			<path class="st15" d="M4.23,46.51l0.15,0.15l15.7-12.38L4.23,46.51z"/>
			<path class="st27" d="M35.49,22.35l-0.15-0.15L20.08,34.43L35.49,22.35z"/>
			<path class="st17" d="M4.38,46.66l0.15,0.3l15.55-12.53L4.38,46.66z"/>
			<path class="st27" d="M35.33,22.05l-0.15-0.15l-15.1,12.53L35.33,22.05z"/>
			<path class="st17" d="M4.53,46.96l0.15,0.15l15.4-12.68L4.53,46.96z"/>
			<path class="st27" d="M35.18,21.89l-0.15-0.15L20.08,34.43L35.18,21.89z"/>
			<path class="st19" d="M4.68,47.11l0.15,0.15l15.25-12.84L4.68,47.11z"/>
			<path class="st25" d="M35.03,21.74l-0.15-0.15l-14.8,12.84L35.03,21.74z"/>
			<path class="st19" d="M4.98,47.26l0.15,0.15l14.95-12.99L4.98,47.26z"/>
			<path class="st25" d="M34.88,21.59l-0.15-0.15L20.08,34.43L34.88,21.59z"/>
			<path class="st19" d="M5.13,47.41l0.15,0.15l14.8-13.29L5.13,47.41z"/>
			<path class="st25" d="M34.73,21.44l-0.15-0.3l-14.5,13.14L34.73,21.44z"/>
			<path class="st21" d="M5.29,47.56l0.15,0.15l14.64-13.43L5.29,47.56z"/>
			<path class="st23" d="M34.58,21.14l-0.15-0.15L20.08,34.28L34.58,21.14z"/>
			<path class="st23" d="M5.44,47.87l0.15,0.15l14.5-13.59L5.44,47.87z"/>
			<path class="st23" d="M34.43,20.99l-0.15-0.15L20.23,34.43L34.43,20.99z"/>
			<path class="st23" d="M5.59,48.02l0.15,0.15l14.35-13.74L5.59,48.02z"/>
			<path class="st23" d="M34.28,20.84l-0.15-0.15l-13.9,13.74L34.28,20.84z"/>
			<path class="st25" d="M5.74,48.17l0.15,0.15l14.19-13.89L5.74,48.17z"/>
			<path class="st25" d="M33.98,20.69l-0.15-0.15L20.08,34.43L33.98,20.69z"/>
			<path class="st25" d="M5.89,48.32l0.15,0.15l14.04-14.04L5.89,48.32z"/>
			<path class="st27" d="M33.82,20.54l-0.15-0.15L20.08,34.43L33.82,20.54z"/>
			<path class="st27" d="M6.04,48.47l0.15,0.15l13.74-14.19L6.04,48.47z"/>
			<path class="st27" d="M33.67,20.38l-0.15-0.15l-13.44,14.2L33.67,20.38z"/>
			<path class="st27" d="M6.34,48.62l0.15,0.15l13.59-14.5L6.34,48.62z"/>
			<path class="st7" d="M33.52,20.23l-0.15-0.15L20.08,34.43L33.52,20.23z"/>
			<path class="st27" d="M6.49,48.77l0.15,0.15l13.44-14.64L6.49,48.77z"/>
			<path class="st29" d="M33.37,20.08l-0.15-0.15l-13.14,14.5L33.37,20.08z"/>
			<path class="st7" d="M6.64,48.92l0.15,0.15l13.29-14.8L6.64,48.92z"/>
			<path class="st31" d="M33.22,19.93l-0.3-0.3L20.08,34.28L33.22,19.93z"/>
			<path class="st29" d="M6.8,49.07l0.15,0.15l12.98-14.94L6.8,49.07z"/>
			<path class="st32" d="M32.92,19.63h-0.15l-12.68,14.8L32.92,19.63z"/>
			<path class="st29" d="M7.1,49.23l0.15,0.15l12.84-15.1L7.1,49.23z"/>
			<path class="st32" d="M32.77,19.63l-0.15-0.15L20.08,34.43L32.77,19.63z"/>
			<path class="st29" d="M7.25,49.38l0.15,0.15l12.68-15.25L7.25,49.38z"/>
			<path class="st47" d="M32.62,19.48l-0.15-0.15l-12.38,15.1L32.62,19.48z"/>
			<path class="st31" d="M7.4,49.53l0.15,0.15l12.53-15.4L7.4,49.53z"/>
			<path class="st34" d="M32.47,19.33l-0.16-0.15L20.23,34.43L32.47,19.33z"/>
			<path class="st31" d="M7.55,49.83l0.15,0.15l12.23-15.55L7.55,49.83z"/>
			<path class="st36" d="M32.16,19.18l-0.15-0.15l-11.93,15.4L32.16,19.18z"/>
			<path class="st32" d="M7.85,49.83L8,49.98l12.08-15.55L7.85,49.83z"/>
			<path class="st39" d="M32.01,19.03l-0.15-0.15L20.08,34.43L32.01,19.03z"/>
			<path class="st47" d="M8,49.98l0.15,0.15l11.93-15.7L8,49.98z"/>
			<path class="st39" d="M31.86,18.87l-0.15-0.15l-11.48,15.7L31.86,18.87z"/>
			<path class="st47" d="M8.15,50.13l0.15,0.15l11.63-15.86L8.15,50.13z"/>
			<path class="st41" d="M31.71,18.72l-0.15-0.15L20.23,34.43L31.71,18.72z"/>
			<path class="st34" d="M8.46,50.28l0.15,0.15l11.48-16.01L8.46,50.28z"/>
			<path class="st45" d="M31.41,18.57l-0.15-0.15L20.08,34.43L31.41,18.57z"/>
			<path class="st34" d="M8.61,50.43l0.15,0.15l11.33-16.16L8.61,50.43z"/>
			<path class="st43" d="M31.26,18.42l-0.15-0.15L20.23,34.43L31.26,18.42z"/>
			<path class="st34" d="M8.76,50.58l0.3,0.15l11.02-16.31L8.76,50.58z"/>
			<path class="st46" d="M31.11,18.27l-0.3-0.15L20.08,34.43L31.11,18.27z"/>
			<path class="st36" d="M9.06,50.74l0.15,0.15l10.87-16.46L9.06,50.74z"/>
			<path class="st44" d="M30.8,18.12l-0.15-0.15L20.08,34.43L30.8,18.12z"/>
			<path class="st36" d="M9.21,50.74l0.15,0.15l10.57-16.46L9.21,50.74z"/>
			<path class="st44" d="M30.65,17.97l-0.15-0.15L20.23,34.28L30.65,17.97z"/>
			<path class="st39" d="M9.51,50.89l0.15,0.15l10.42-16.61L9.51,50.89z"/>
			<path class="st49" d="M30.5,17.82h-0.3L20.08,34.43L30.5,17.82z"/>
			<path class="st39" d="M9.66,51.04l0.15,0.15l10.27-16.76L9.66,51.04z"/>
			<path class="st42" d="M30.2,17.82l-0.15-0.15l-9.97,16.76L30.2,17.82z"/>
			<path class="st41" d="M9.82,51.19l0.3,0.15l9.97-16.91L9.82,51.19z"/>
			<path class="st42" d="M30.05,17.67l-0.15-0.15l-9.66,16.91L30.05,17.67z"/>
			<path class="st41" d="M10.12,51.34h0.15l9.82-17.06L10.12,51.34z"/>
			<path class="st40" d="M29.75,17.52l-0.15-0.15l-9.52,16.91L29.75,17.52z"/>
			<path class="st41" d="M10.27,51.34l0.3,0.15l9.51-17.06L10.27,51.34z"/>
			<path class="st38" d="M29.6,17.36l-0.15-0.15l-9.37,17.07L29.6,17.36z"/>
			<path class="st45" d="M10.57,51.49l0.15,0.15l9.36-17.21L10.57,51.49z"/>
			<path class="st37" d="M29.45,17.36l-0.15-0.15l-9.06,17.21L29.45,17.36z"/>
			<path class="st43" d="M10.72,51.64l0.15,0.15l9.06-17.37L10.72,51.64z"/>
			<path class="st37" d="M29.14,17.21l-0.15-0.15l-8.91,17.37L29.14,17.21z"/>
			<path class="st43" d="M10.87,51.64l0.15,0.15l8.91-17.37L10.87,51.64z"/>
			<path class="st35" d="M28.99,17.06l-0.15-0.15l-8.61,17.37L28.99,17.06z"/>
			<path class="st46" d="M11.17,51.79l0.15,0.15l8.76-17.52L11.17,51.79z"/>
			<path class="st8" d="M28.69,17.06l-0.15-0.15l-8.46,17.52L28.69,17.06z"/>
			<path class="st44" d="M11.48,51.94l0.15,0.15l8.46-17.67L11.48,51.94z"/>
			<path class="st8" d="M28.54,16.91l-0.15-0.15l-8.15,17.67L28.54,16.91z"/>
			<path class="st42" d="M11.63,51.94l0.15,0.15l8.31-17.67L11.63,51.94z"/>
			<path class="st30" d="M28.39,16.76l-0.15-0.15l-8,17.67L28.39,16.76z"/>
			<path class="st42" d="M11.78,52.09l0.3,0.15l8-17.82L11.78,52.09z"/>
			<path class="st50" d="M28.09,16.76l-0.15-0.15l-7.85,17.82L28.09,16.76z"/>
			<path class="st40" d="M12.08,52.09l0.15,0.15l7.85-17.82L12.08,52.09z"/>
			<path class="st28" d="M27.94,16.61l-0.15-0.15l-7.56,17.82L27.94,16.61z"/>
			<path class="st40" d="M12.23,52.25l0.15,0.15l7.55-17.97L12.23,52.25z"/>
			<path class="st28" d="M27.63,16.46l-0.15-0.15l-7.4,17.97L27.63,16.46z"/>
			<path class="st38" d="M12.53,52.4l0.3,0.15l7.4-17.97L12.53,52.4z"/>
			<path class="st24" d="M27.48,16.46l-0.3-0.15l-7.1,18.12L27.48,16.46z"/>
			<path class="st37" d="M12.68,52.4l0.3,0.15l7.1-18.12L12.68,52.4z"/>
			<path class="st24" d="M27.18,16.31l-0.15-0.15l-6.95,18.12L27.18,16.31z"/>
			<path class="st35" d="M12.99,52.55l0.3,0.15l6.95-18.12L12.99,52.55z"/>
			<path class="st22" d="M27.03,16.31l-0.15-0.15l-6.64,18.27L27.03,16.31z"/>
			<path class="st33" d="M13.14,52.55l0.3,0.15l6.64-18.27L13.14,52.55z"/>
			<path class="st22" d="M26.73,16.16l-0.15-0.15l-6.5,18.27L26.73,16.16z"/>
			<path class="st8" d="M13.44,52.7h0.3l6.49-18.27L13.44,52.7z"/>
			<path class="st20" d="M26.58,16.16l-0.15-0.15l-6.19,18.42L26.58,16.16z"/>
			<path class="st30" d="M13.74,52.7h0.3l6.19-18.42L13.74,52.7z"/>
			<path class="st18" d="M26.27,16.01h-0.3l-6.04,18.42L26.27,16.01z"/>
			<path class="st30" d="M13.89,52.85h0.3l6.04-18.42L13.89,52.85z"/>
			<path class="st16" d="M26.12,16.01h-0.3l-5.74,18.42L26.12,16.01z"/>
			<path class="st50" d="M14.19,52.85h0.3l5.74-18.57L14.19,52.85z"/>
			<path class="st6" d="M25.82,15.85h-0.3l-5.59,18.57L25.82,15.85z"/>
			<path class="st28" d="M14.35,52.85h0.3l5.44-18.57L14.35,52.85z"/>
			<path class="st6" d="M25.67,15.85h-0.3l-5.29,18.57L25.67,15.85z"/>
			<path class="st26" d="M14.65,53h0.3l5.29-18.57L14.65,53z"/>
			<path class="st51" d="M25.37,15.7h-0.3l-4.98,18.72L25.37,15.7z"/>
			<path class="st24" d="M14.8,53h0.3l4.98-18.72L14.8,53z"/>
			<path class="st52" d="M25.22,15.7h-0.3l-4.83,18.72L25.22,15.7z"/>
			<path class="st24" d="M15.1,53h0.3l4.83-18.72L15.1,53z"/>
			<path class="st52" d="M24.92,15.7h-0.3l-4.53,18.72L24.92,15.7z"/>
			<path class="st22" d="M15.25,53.15h0.3l4.53-18.72L15.25,53.15z"/>
			<path class="st53" d="M24.61,15.55h-0.3l-4.38,18.88L24.61,15.55z"/>
			<path class="st20" d="M15.55,53.15h0.3l4.38-18.88L15.55,53.15z"/>
			<path class="st54" d="M24.46,15.55h-0.3l-4.08,18.88L24.46,15.55z"/>
			<path class="st18" d="M15.7,53.15H16l4.08-18.88L15.7,53.15z"/>
			<path class="st54" d="M24.16,15.55h-0.3l-3.93,18.88L24.16,15.55z"/>
			<path class="st16" d="M16.01,53.3h0.3l3.93-18.88L16.01,53.3z"/>
			<path class="st55" d="M24.01,15.4h-0.3l-3.62,19.03L24.01,15.4z"/>
			<path class="st6" d="M16.16,53.3h0.3l3.62-18.88L16.16,53.3z"/>
			<path class="st56" d="M23.71,15.4h-0.3l-3.47,19.03L23.71,15.4z"/>
			<path class="st6" d="M16.46,53.3h0.3l3.47-19.03L16.46,53.3z"/>
			<path class="st56" d="M23.56,15.4h-0.3l-3.17,19.03L23.56,15.4z"/>
			<path class="st51" d="M16.76,53.3h0.3l3.17-19.03L16.76,53.3z"/>
			<path class="st57" d="M23.25,15.4h-0.3l-3.02,19.03L23.25,15.4z"/>
			<path class="st52" d="M16.91,53.45h0.3l2.87-19.03L16.91,53.45z"/>
			<path class="st57" d="M23.1,15.25h-0.3l-2.72,19.03L23.1,15.25z"/>
			<path class="st58" d="M17.21,53.45h0.3l2.72-19.03L17.21,53.45z"/>
			<path class="st59" d="M22.8,15.25h-0.3l-2.42,19.18L22.8,15.25z"/>
			<path class="st53" d="M17.37,53.45h0.3l2.42-19.03L17.37,53.45z"/>
			<path class="st57" d="M22.5,15.25h-0.3l-2.27,19.18L22.5,15.25z"/>
			<path class="st54" d="M17.67,53.45h0.3l2.27-19.18L17.67,53.45z"/>
			<path class="st60" d="M22.35,15.25h-0.3l-1.96,19.18L22.35,15.25z"/>
			<path class="st54" d="M17.82,53.45h0.3l1.96-19.18L17.82,53.45z"/>
			<path class="st56" d="M22.05,15.25h-0.3l-1.81,19.18L22.05,15.25z"/>
			<path class="st55" d="M18.12,53.6h0.3l1.81-19.18L18.12,53.6z"/>
			<path class="st55" d="M21.9,15.25h-0.3l-1.51,19.18L21.9,15.25z"/>
			<path class="st56" d="M18.27,53.6h0.3l1.51-19.18L18.27,53.6z"/>
			<path class="st54" d="M21.59,15.25h-0.3l-1.36,19.18L21.59,15.25z"/>
			<path class="st60" d="M18.57,53.6h0.3l1.21-19.18L18.57,53.6z"/>
			<path class="st54" d="M21.44,15.25h-0.3l-1.06,19.18L21.44,15.25z"/>
			<path class="st57" d="M18.88,53.6h0.3l1.06-19.18L18.88,53.6z"/>
			<path class="st53" d="M21.14,15.25h-0.3l-0.76,19.18L21.14,15.25z"/>
			<path class="st59" d="M19.03,53.6h0.3l0.76-19.18L19.03,53.6z"/>
			<path class="st58" d="M20.84,15.25h-0.3l-0.6,19.18L20.84,15.25z"/>
			<path class="st57" d="M19.33,53.6h0.3l0.6-19.18L19.33,53.6z"/>
			<path class="st52" d="M20.69,15.25h-0.3l-0.3,19.18L20.69,15.25z"/>
			<path class="st57" d="M19.48,53.6h0.3l0.3-19.18L19.48,53.6z"/>
			<path class="st51" d="M20.39,15.1h-0.3l-0.16,19.18L20.39,15.1z"/>
			<path class="st56" d="M19.78,53.6h0.3l0.15-19.18L19.78,53.6z"/>
			<path class="st6" d="M20.23,15.25h-0.3l0.15,19.18L20.23,15.25z"/>
			<path class="st56" d="M19.93,53.6h0.3l-0.15-19.18L19.93,53.6z"/>
			<path class="st6" d="M19.93,15.25h-0.3l0.3,19.18V15.25z"/>
			<path class="st55" d="M20.23,53.6h0.3l-0.3-19.18V53.6z"/>
			<path class="st16" d="M19.78,15.25h-0.3l0.6,19.18L19.78,15.25z"/>
			<path class="st54" d="M20.54,53.6h0.3l-0.6-19.18L20.54,53.6z"/>
			<path class="st18" d="M19.48,15.25h-0.3l0.91,19.18L19.48,15.25z"/>
			<path class="st54" d="M20.69,53.6h0.3l-0.91-19.18L20.69,53.6z"/>
			<path class="st20" d="M19.33,15.25h-0.3l1.06,19.18L19.33,15.25z"/>
			<path class="st53" d="M20.99,53.6h0.15l-1.06-19.18L20.99,53.6z"/>
			<path class="st22" d="M19.03,15.25h-0.3l1.36,19.18L19.03,15.25z"/>
			<path class="st52" d="M21.14,53.6h0.3l-1.36-19.18L21.14,53.6z"/>
			<path class="st24" d="M18.72,15.25h-0.3l1.51,19.18L18.72,15.25z"/>
			<path class="st52" d="M21.44,53.6h0.3l-1.51-19.18L21.44,53.6z"/>
			<path class="st24" d="M18.57,15.25h-0.3l1.81,19.18L18.57,15.25z"/>
			<path class="st51" d="M21.59,53.6h0.3l-1.81-19.18L21.59,53.6z"/>
			<path class="st26" d="M18.27,15.25h-0.15l1.96,19.03L18.27,15.25z"/>
			<path class="st6" d="M21.9,53.6h0.3l-1.96-19.18L21.9,53.6z"/>
			<path class="st28" d="M18.12,15.25h-0.3l2.27,19.03L18.12,15.25z"/>
			<path class="st6" d="M22.2,53.6h0.3l-2.27-19.18L22.2,53.6z"/>
			<path class="st50" d="M17.82,15.4h-0.3l2.57,19.03L17.82,15.4z"/>
			<path class="st16" d="M22.35,53.45h0.3l-2.57-19.17L22.35,53.45z"/>
			<path class="st30" d="M17.67,15.4h-0.3l2.72,19.03L17.67,15.4z"/>
			<path class="st18" d="M22.65,53.45h0.3l-2.72-19.03L22.65,53.45z"/>
			<path class="st30" d="M17.37,15.4h-0.3l3.02,19.03L17.37,15.4z"/>
			<path class="st20" d="M22.8,53.45h0.3l-3.02-19.03L22.8,53.45z"/>
			<path class="st8" d="M17.21,15.4h-0.3l3.17,18.88L17.21,15.4z"/>
			<path class="st22" d="M23.1,53.45h0.3l-3.17-19.03L23.1,53.45z"/>
			<path class="st33" d="M16.91,15.55h-0.3l3.47,18.88L16.91,15.55z"/>
			<path class="st22" d="M23.25,53.45h0.3l-3.47-19.03L23.25,53.45z"/>
			<path class="st35" d="M16.61,15.55h-0.3l3.62,18.88L16.61,15.55z"/>
			<path class="st24" d="M23.56,53.3h0.3l-3.62-18.88L23.56,53.3z"/>
			<path class="st37" d="M16.46,15.55h-0.3l3.93,18.72L16.46,15.55z"/>
			<path class="st24" d="M23.71,53.3h0.3l-3.93-18.88L23.71,53.3z"/>
			<path class="st38" d="M16.16,15.55h-0.3l4.08,18.72L16.16,15.55z"/>
			<path class="st28" d="M24.01,53.3h0.3l-4.08-18.88L24.01,53.3z"/>
			<path class="st40" d="M16.01,15.7h-0.3l4.38,18.72L16.01,15.7z"/>
			<path class="st28" d="M24.31,53.3h0.3l-4.38-18.72L24.31,53.3z"/>
			<path class="st40" d="M15.7,15.7h-0.3l4.53,18.57L15.7,15.7z"/>
			<path class="st50" d="M24.46,53.15h0.3l-4.68-18.72L24.46,53.15z"/>
			<path class="st42" d="M15.55,15.7h-0.3l4.83,18.57L15.55,15.7z"/>
			<path class="st30" d="M24.76,53.15h0.3l-4.83-18.72L24.76,53.15z"/>
			<path class="st42" d="M15.25,15.85h-0.3l4.98,18.57L15.25,15.85z"/>
			<path class="st8" d="M24.92,53.15h0.15l-5.13-18.72L24.92,53.15z"/>
			<path class="st44" d="M15.1,15.85h-0.3l5.29,18.42L15.1,15.85z"/>
			<path class="st8" d="M25.22,53h0.3l-5.29-18.57L25.22,53z"/>
			<path class="st46" d="M14.8,16.01h-0.3l5.44,18.42L14.8,16.01z"/>
			<path class="st35" d="M25.37,53h0.3l-5.59-18.57L25.37,53z"/>
			<path class="st43" d="M14.65,16.01H14.5l5.74,18.27L14.65,16.01z"/>
			<path class="st37" d="M25.67,52.85h0.3l-5.74-18.42L25.67,52.85z"/>
			<path class="st43" d="M14.35,16.01H14.2l5.89,18.27L14.35,16.01z"/>
			<path class="st37" d="M25.82,52.85h0.3l-6.04-18.42L25.82,52.85z"/>
			<path class="st45" d="M14.19,16.16h-0.15l6.19,18.12L14.19,16.16z"/>
			<path class="st38" d="M26.12,52.85h0.3l-6.19-18.27L26.12,52.85z"/>
			<path class="st41" d="M13.89,16.16l-0.15,0.15l6.34,18.12L13.89,16.16z"/>
			<path class="st40" d="M26.27,52.7h0.3l-6.49-18.27L26.27,52.7z"/>
			<path class="st41" d="M13.74,16.31l-0.15,0.15l6.64,18.12L13.74,16.31z"/>
			<path class="st42" d="M26.58,52.7h0.3l-6.65-18.12L26.58,52.7z"/>
			<path class="st41" d="M13.44,16.31l-0.15,0.15l6.8,17.97L13.44,16.31z"/>
			<path class="st42" d="M26.73,52.55l0.15-0.15l-6.95-18.12L26.73,52.55z"/>
			<path class="st39" d="M13.29,16.46l-0.3,0.15l7.1,17.82L13.29,16.46z"/>
			<path class="st49" d="M27.03,52.55l0.15-0.15l-7.1-18.12L27.03,52.55z"/>
			<path class="st39" d="M12.99,16.46l-0.15,0.15l7.25,17.82L12.99,16.46z"/>
			<path class="st44" d="M27.18,52.4l0.15-0.15l-7.4-17.97L27.18,52.4z"/>
			<path class="st36" d="M12.84,16.61l-0.15,0.15l7.55,17.67L12.84,16.61z"/>
			<path class="st44" d="M27.48,52.4l0.15-0.15l-7.55-17.82L27.48,52.4z"/>
			<path class="st36" d="M12.53,16.76l-0.15,0.15l7.7,17.67L12.53,16.76z"/>
			<path class="st46" d="M27.63,52.25l0.15-0.15l-7.85-17.82L27.63,52.25z"/>
			<path class="st34" d="M12.38,16.76l-0.15,0.15l8,17.52L12.38,16.76z"/>
			<path class="st43" d="M27.94,52.25l0.15-0.15l-8-17.67L27.94,52.25z"/>
			<path class="st34" d="M12.23,16.91l-0.15,0.15l8.15,17.37L12.23,16.91z"/>
			<path class="st45" d="M28.09,52.09l0.15-0.15l-8.31-17.66L28.09,52.09z"/>
			<path class="st34" d="M11.93,16.91l-0.15,0.15l8.31,17.37L11.93,16.91z"/>
			<path class="st41" d="M28.39,51.94l0.15-0.15l-8.46-17.51L28.39,51.94z"/>
			<path class="st47" d="M11.78,17.06l-0.15,0.15l8.61,17.21L11.78,17.06z"/>
			<path class="st39" d="M28.54,51.94l0.15-0.15l-8.76-17.37L28.54,51.94z"/>
			<path class="st47" d="M11.48,17.21l-0.15,0.15l8.76,17.06L11.48,17.21z"/>
			<path class="st39" d="M28.84,51.79l0.15-0.15l-8.91-17.36L28.84,51.79z"/>
			<path class="st32" d="M11.33,17.21l-0.15,0.15l9.06,17.06L11.33,17.21z"/>
			<path class="st36" d="M28.99,51.79l0.15-0.15l-9.06-17.21L28.99,51.79z"/>
			<path class="st31" d="M11.02,17.36l-0.15,0.15l9.21,16.91L11.02,17.36z"/>
			<path class="st34" d="M29.29,51.64l0.15-0.15l-9.36-17.06L29.29,51.64z"/>
			<path class="st31" d="M10.87,17.52l-0.15,0.15l9.36,16.76L10.87,17.52z"/>
			<path class="st47" d="M29.45,51.49l0.15-0.15l-9.52-17.06L29.45,51.49z"/>
			<path class="st29" d="M10.72,17.67l-0.15,0.15l9.66,16.61L10.72,17.67z"/>
			<path class="st32" d="M29.6,51.34l0.15-0.15l-9.82-16.91L29.6,51.34z"/>
			<path class="st29" d="M10.42,17.67l-0.15,0.15l9.82,16.61L10.42,17.67z"/>
			<path class="st32" d="M29.9,51.34l0.15-0.15l-9.97-16.76L29.9,51.34z"/>
			<path class="st29" d="M10.27,17.82l-0.15,0.15l10.12,16.46L10.27,17.82z"/>
			<path class="st31" d="M30.05,51.19l0.15-0.15L19.93,34.43L30.05,51.19z"/>
			<path class="st7" d="M9.97,17.97l-0.15,0.15l10.27,16.31L9.97,17.97z"/>
			<path class="st29" d="M30.35,51.04l0.15-0.15L20.08,34.28L30.35,51.04z"/>
			<path class="st27" d="M9.82,18.12H9.66l10.42,16.16L9.82,18.12z"/>
			<path class="st7" d="M30.5,50.89l0.15-0.15L20.08,34.28L30.5,50.89z"/>
			<path class="st27" d="M9.66,18.12l-0.15,0.15l10.72,16.01L9.66,18.12z"/>
			<path class="st27" d="M30.65,50.89l0.15-0.15L19.93,34.43L30.65,50.89z"/>
			<path class="st27" d="M9.36,18.27l-0.15,0.15l10.87,16.01L9.36,18.27z"/>
			<path class="st27" d="M30.96,50.74l0.15-0.15L20.08,34.43L30.96,50.74z"/>
			<path class="st25" d="M9.21,18.42l-0.15,0.15l11.02,15.86L9.21,18.42z"/>
			<path class="st25" d="M31.11,50.58l0.15-0.15l-11.18-16L31.11,50.58z"/>
			<path class="st25" d="M9.06,18.57l-0.15,0.15l11.33,15.7L9.06,18.57z"/>
			<path class="st23" d="M31.41,50.43l0.15-0.15L20.08,34.43L31.41,50.43z"/>
			<path class="st23" d="M8.76,18.72l-0.15,0.15l11.48,15.55L8.76,18.72z"/>
			<path class="st23" d="M31.56,50.28l0.15-0.15L20.08,34.28L31.56,50.28z"/>
			<path class="st23" d="M8.61,18.87l-0.15,0.15l11.63,15.4L8.61,18.87z"/>
			<path class="st23" d="M31.71,50.13l0.15-0.15l-11.78-15.7L31.71,50.13z"/>
			<path class="st21" d="M8.46,19.03l-0.15,0.15l11.78,15.25L8.46,19.03z"/>
			<path class="st25" d="M32.01,49.98l0.15-0.15L20.08,34.28L32.01,49.98z"/>
			<path class="st19" d="M8.31,19.18l-0.15,0.15l12.08,15.1L8.31,19.18z"/>
			<path class="st25" d="M32.16,49.98l0.15-0.15l-12.23-15.4L32.16,49.98z"/>
			<path class="st19" d="M8,19.33l-0.15,0.15l12.23,14.95L8,19.33z"/>
			<path class="st25" d="M32.31,49.83l0.15-0.15L20.08,34.43L32.31,49.83z"/>
			<path class="st19" d="M7.85,19.48L7.7,19.63l12.38,14.8L7.85,19.48z"/>
			<path class="st27" d="M32.47,49.68l0.15-0.15l-12.68-15.1L32.47,49.68z"/>
			<path class="st17" d="M7.7,19.63H7.4l12.68,14.65L7.7,19.63z"/>
			<path class="st27" d="M32.77,49.53l0.15-0.15L20.08,34.43L32.77,49.53z"/>
			<path class="st17" d="M7.55,19.63L7.4,19.78l12.84,14.5L7.55,19.63z"/>
			<path class="st27" d="M32.92,49.38l0.15-0.15l-12.99-14.8L32.92,49.38z"/>
			<path class="st15" d="M7.25,19.78L7.1,19.93l12.98,14.35L7.25,19.78z"/>
			<path class="st27" d="M33.07,49.23l0.15-0.15L20.08,34.43L33.07,49.23z"/>
			<path class="st15" d="M7.1,19.93l-0.15,0.15l13.13,14.2L7.1,19.93z"/>
			<path class="st7" d="M33.37,49.07l0.15-0.15l-13.44-14.5L33.37,49.07z"/>
			<path class="st14" d="M6.95,20.23L6.8,20.38l13.29,14.04L6.95,20.23z"/>
			<path class="st7" d="M33.52,48.92l0.15-0.15L20.08,34.43L33.52,48.92z"/>
			<path class="st14" d="M6.8,20.38l-0.15,0.15l13.59,13.89L6.8,20.38z"/>
			<path class="st7" d="M33.67,48.77l0.15-0.15L20.08,34.43L33.67,48.77z"/>
			<path class="st48" d="M6.49,20.54l-0.15,0.15l13.74,13.74L6.49,20.54z"/>
			<path class="st29" d="M33.82,48.62l0.15-0.15L20.08,34.43L33.82,48.62z"/>
			<path class="st48" d="M6.34,20.69l-0.15,0.15l13.89,13.59L6.34,20.69z"/>
			<path class="st29" d="M33.98,48.32l0.15-0.15L20.08,34.28L33.98,48.32z"/>
			<path class="st1" d="M6.19,20.84l-0.15,0.15l14.04,13.44L6.19,20.84z"/>
			<path class="st29" d="M34.28,48.17l0.15-0.15L20.08,34.28L34.28,48.17z"/>
			<path class="st1" d="M6.04,20.99l-0.15,0.15l14.19,13.29L6.04,20.99z"/>
			<path class="st29" d="M34.43,48.02l0.15-0.15l-14.5-13.44L34.43,48.02z"/>
			<path class="st48" d="M5.89,21.14l-0.15,0.15l14.35,13.14L5.89,21.14z"/>
			<path class="st31" d="M34.58,47.87l0.15-0.15L20.08,34.43L34.58,47.87z"/>
			<path class="st14" d="M5.74,21.29l-0.15,0.15l14.5,12.84L5.74,21.29z"/>
			<path class="st31" d="M34.73,47.72l0.15-0.15l-14.8-13.14L34.73,47.72z"/>
			<path class="st15" d="M5.59,21.44l-0.15,0.15l14.64,12.69L5.59,21.44z"/>
			<path class="st32" d="M34.88,47.56l0.15-0.15L20.08,34.43L34.88,47.56z"/>
			<path class="st17" d="M5.44,21.59l-0.15,0.15l14.8,12.53L5.44,21.59z"/>
			<path class="st32" d="M35.03,47.41l0.15-0.15l-15.1-12.84L35.03,47.41z"/>
			<path class="st17" d="M5.29,21.89l-0.15,0.15l14.95,12.38L5.29,21.89z"/>
			<path class="st32" d="M35.18,47.11l0.15-0.15L20.08,34.43L35.18,47.11z"/>
			<path class="st19" d="M5.13,22.05L4.98,22.2l15.25,12.23L5.13,22.05z"/>
			<path class="st32" d="M35.33,46.96l0.15-0.15l-15.4-12.38L35.33,46.96z"/>
			<path class="st19" d="M4.98,22.2l-0.15,0.15l15.25,12.08L4.98,22.2z"/>
			<path class="st32" d="M35.49,46.81l0.15-0.15L20.08,34.43L35.49,46.81z"/>
			<path class="st23" d="M4.83,22.35l-0.15,0.3l15.55,11.78L4.83,22.35z"/>
			<path class="st47" d="M35.64,46.66l0.15-0.15l-15.7-12.08L35.64,46.66z"/>
			<path class="st23" d="M4.68,22.65L4.53,22.8l15.7,11.63L4.68,22.65z"/>
			<path class="st47" d="M35.79,46.36l0.15-0.15L20.08,34.43L35.79,46.36z"/>
			<path class="st25" d="M4.53,22.8l-0.15,0.15l15.7,11.48L4.53,22.8z"/>
			<path class="st47" d="M35.94,46.21l0.15-0.15L20.08,34.43L35.94,46.21z"/>
			<path class="st27" d="M4.38,22.95L4.23,23.1l15.85,11.18L4.38,22.95z"/>
			<path class="st34" d="M36.09,46.05l0.15-0.15L20.08,34.43L36.09,46.05z"/>
			<path class="st27" d="M4.23,23.1l-0.15,0.15l16,11.03L4.23,23.1z"/>
			<path class="st34" d="M36.24,45.9l0.15-0.15L20.08,34.58L36.24,45.9z"/>
			<path class="st7" d="M4.08,23.4l-0.15,0.15l16.16,10.87L4.08,23.4z"/>
			<path class="st34" d="M36.39,45.6l0.15-0.15L20.08,34.43L36.39,45.6z"/>
			<path class="st29" d="M3.93,23.56l-0.15,0.15l16.31,10.72L3.93,23.56z"/>
			<path class="st34" d="M36.54,45.45l0.15-0.15L20.08,34.43L36.54,45.45z"/>
			<path class="st31" d="M3.78,23.71l-0.15,0.15l16.45,10.42L3.78,23.71z"/>
			<path class="st36" d="M36.69,45.3l0.15-0.15L20.08,34.43L36.69,45.3z"/>
			<path class="st31" d="M3.62,23.86l-0.15,0.3l16.61,10.27L3.62,23.86z"/>
			<path class="st36" d="M36.84,45L37,44.85L20.08,34.43L36.84,45z"/>
			<path class="st32" d="M3.47,24.16l-0.15,0.15l16.76,10.12L3.47,24.16z"/>
			<path class="st36" d="M37,44.85l0.15-0.15L20.08,34.43L37,44.85z"/>
			<path class="st32" d="M3.32,24.31l-0.15,0.15l16.91,9.82L3.32,24.31z"/>
			<path class="st36" d="M37.15,44.7l0.15-0.15l-17.22-9.97L37.15,44.7z"/>
			<path class="st47" d="M3.17,24.61l-0.15,0.15l17.06,9.66L3.17,24.61z"/>
			<path class="st39" d="M37.3,44.39l0.15-0.15l-17.21-9.82L37.3,44.39z"/>
			<path class="st34" d="M3.17,24.76l-0.15,0.15l17.06,9.51L3.17,24.76z"/>
			<path class="st39" d="M37.3,44.24l0.15-0.15l-17.37-9.66L37.3,44.24z"/>
			<path class="st36" d="M3.02,24.91l-0.15,0.15l17.21,9.21L3.02,24.91z"/>
			<path class="st39" d="M37.45,43.94l0.15-0.15l-17.52-9.36L37.45,43.94z"/>
			<path class="st39" d="M2.87,25.22l-0.15,0.15l17.37,9.06L2.87,25.22z"/>
			<path class="st41" d="M37.6,43.79l0.15-0.15l-17.67-9.21L37.6,43.79z"/>
			<path class="st39" d="M2.72,25.37l-0.15,0.15l17.52,8.76L2.72,25.37z"/>
			<path class="st41" d="M37.75,43.64l0.15-0.15l-17.82-8.91L37.75,43.64z"/>
			<path class="st41" d="M2.57,25.52l-0.15,0.15l17.52,8.61L2.57,25.52z"/>
			<path class="st41" d="M37.9,43.34l0.15-0.15l-17.82-8.76L37.9,43.34z"/>
			<path class="st45" d="M2.57,25.82l-0.15,0.15l17.67,8.46L2.57,25.82z"/>
			<path class="st41" d="M37.9,43.19l0.15-0.15l-17.97-8.46L37.9,43.19z"/>
			<path class="st43" d="M2.42,25.97l-0.15,0.15l17.82,8.15L2.42,25.97z"/>
			<path class="st45" d="M38.05,42.88l0.15-0.15l-18.12-8.31L38.05,42.88z"/>
			<path class="st43" d="M2.27,26.27l-0.15,0.15l17.97,8L2.27,26.27z"/>
			<path class="st45" d="M38.2,42.73l0.15-0.15l-18.12-8L38.2,42.73z"/>
			<path class="st46" d="M2.11,26.42l-0.15,0.16l17.97,7.7L2.11,26.42z"/>
			<path class="st45" d="M38.2,42.43l0.15-0.15l-18.27-7.85L38.2,42.43z"/>
			<path class="st44" d="M2.11,26.73l-0.15,0.15l18.12,7.55L2.11,26.73z"/>
			<path class="st43" d="M38.35,42.28l0.15-0.15l-18.27-7.55L38.35,42.28z"/>
			<path class="st44" d="M1.96,26.88v0.3l18.12,7.25L1.96,26.88z"/>
			<path class="st43" d="M38.51,41.98l0.15-0.15l-18.42-7.4L38.51,41.98z"/>
			<path class="st42" d="M1.96,27.18l-0.15,0.3l18.27,7.1L1.96,27.18z"/>
			<path class="st43" d="M38.51,41.83l0.15-0.3l-18.57-7.1L38.51,41.83z"/>
			<path class="st42" d="M1.81,27.33l-0.15,0.15l18.42,6.8L1.81,27.33z"/>
			<path class="st41" d="M38.66,41.52l0.15-0.3l-18.58-6.94L38.66,41.52z"/>
			<path class="st40" d="M1.66,27.63l-0.15,0.15l18.42,6.64L1.66,27.63z"/>
			<path class="st41" d="M38.66,41.37l0.15-0.3l-18.72-6.64L38.66,41.37z"/>
			<path class="st40" d="M1.66,27.78l-0.15,0.3l18.57,6.34L1.66,27.78z"/>
			<path class="st39" d="M38.81,41.07l0.15-0.3l-18.73-6.49L38.81,41.07z"/>
			<path class="st38" d="M1.51,28.09v0.15l18.57,6.19L1.51,28.09z"/>
			<path class="st36" d="M38.81,40.92v-0.3l-18.88-6.19L38.81,40.92z"/>
			<path class="st37" d="M1.51,28.24l-0.15,0.3l18.72,5.89L1.51,28.24z"/>
			<path class="st36" d="M38.96,40.62v-0.3l-18.88-6.04L38.96,40.62z"/>
			<path class="st35" d="M1.36,28.54v0.15l18.72,5.74L1.36,28.54z"/>
			<path class="st34" d="M38.96,40.47v-0.3l-19.03-5.74L38.96,40.47z"/>
			<path class="st33" d="M1.36,28.69c0,0.15,0,0.15,0,0.3l18.88,5.44L1.36,28.69z"/>
			<path class="st32" d="M39.11,40.17c0-0.15,0-0.15,0-0.3l-19.03-5.59L39.11,40.17z"/>
			<path class="st33" d="M1.21,28.99v0.3l18.88,5.29L1.21,28.99z"/>
			<path class="st32" d="M39.11,39.86v-0.3l-19.18-5.28L39.11,39.86z"/>
			<path class="st8" d="M1.21,29.14v0.3l19.03,4.98L1.21,29.14z"/>
			<path class="st31" d="M39.26,39.71c0-0.15,0-0.15,0-0.3l-19.18-4.98L39.26,39.71z"/>
			<path class="st30" d="M1.06,29.44c0,0.15,0,0.15,0,0.3l19.03,4.83L1.06,29.44z"/>
			<path class="st29" d="M39.26,39.41v-0.3l-19.18-4.83L39.26,39.41z"/>
			<path class="st30" d="M1.06,29.6c0,0.15,0,0.15,0,0.3l19.03,4.53L1.06,29.6z"/>
			<path class="st29" d="M39.26,39.26c0-0.15,0-0.15,0-0.3l-19.33-4.53L39.26,39.26z"/>
			<path class="st28" d="M1.06,29.9v0.3l19.18,4.23L1.06,29.9z"/>
			<path class="st7" d="M39.41,38.96c0-0.15,0-0.15,0-0.3l-19.33-4.38L39.41,38.96z"/>
			<path class="st28" d="M0.91,30.05v0.3l19.18,4.08L0.91,30.05z"/>
			<path class="st27" d="M39.41,38.81c0-0.15,0-0.15,0-0.3l-19.33-4.08L39.41,38.81z"/>
			<path class="st26" d="M0.91,30.35c0,0.15,0,0.15,0,0.3l19.33,3.78L0.91,30.35z"/>
			<path class="st25" d="M39.41,38.5v-0.3l-19.48-3.92L39.41,38.5z"/>
			<path class="st24" d="M0.91,30.5c0,0.15,0,0.15,0,0.3l19.33,3.62L0.91,30.5z"/>
			<path class="st23" d="M39.56,38.35c0-0.15,0-0.15,0-0.3l-19.48-3.62L39.56,38.35z"/>
			<path class="st24" d="M0.76,30.8c0,0.15,0,0.15,0,0.3l19.33,3.32L0.76,30.8z"/>
			<path class="st23" d="M39.56,38.05c0-0.15,0-0.15,0-0.3l-19.48-3.32L39.56,38.05z"/>
			<path class="st22" d="M0.76,31.11v0.3l19.33,3.17L0.76,31.11z"/>
			<path class="st21" d="M39.56,37.75c0-0.15,0-0.15,0-0.3l-19.48-3.17L39.56,37.75z"/>
			<path class="st20" d="M0.76,31.26c0,0.15,0,0.15,0,0.3l19.48,2.87L0.76,31.26z"/>
			<path class="st19" d="M39.56,37.6v-0.3l-19.48-2.87L39.56,37.6z"/>
			<path class="st18" d="M0.6,31.56c0,0.15,0,0.15,0,0.3l19.48,2.57L0.6,31.56z"/>
			<path class="st17" d="M39.71,37.3c0-0.15,0-0.15,0-0.3l-19.63-2.72L39.71,37.3z"/>
			<path class="st18" d="M0.6,31.71c0,0.15,0,0.15,0,0.3l19.48,2.42L0.6,31.71z"/>
			<path class="st17" d="M39.71,36.99c0-0.15,0-0.15,0-0.3l-19.63-2.41L39.71,36.99z"/>
			<path class="st16" d="M0.6,32.01v0.3l19.48,2.11L0.6,32.01z"/>
			<path class="st15" d="M39.71,36.84c0-0.15,0-0.15,0-0.3l-19.63-2.11L39.71,36.84z"/>
			<path class="st6" d="M0.6,32.31c0,0.15,0,0.15,0,0.3l19.63,1.96L0.6,32.31z"/>
			<path class="st14" d="M39.71,36.54c0-0.15,0-0.15,0-0.3l-19.63-1.96L39.71,36.54z"/>
		</g>
		<g>
			<g>
				<g>
					<defs>
						<path id="SVGID_13_" d="M20.39,17.82c9.36,0,16.76,7.55,16.76,16.76S29.6,51.34,20.39,51.34c-9.36,0-16.76-7.55-16.76-16.76
							C3.62,25.37,11.02,17.82,20.39,17.82L20.39,17.82"/>
					</defs>
					<clipPath id="SVGID_14_">
						<use xlink:href="#SVGID_13_"  style="overflow:visible;"/>
					</clipPath>
					<g class="st61">
						
							<linearGradient id="SVGID_15_" gradientUnits="userSpaceOnUse" x1="-216.1686" y1="-356.2592" x2="-215.9718" y2="-356.2592" gradientTransform="matrix(3.286952e-15 53.68 37.07 -2.269883e-15 13226.9814 11640.71)">
							<stop  offset="0" style="stop-color:#202121"/>
							<stop  offset="1" style="stop-color:#EDEDEE"/>
						</linearGradient>
						<rect x="3.62" y="17.82" class="st62" width="33.67" height="33.67"/>
					</g>
				</g>
			</g>
		</g>
		<g>
			<g>
				<g>
					<defs>
						<path id="SVGID_16_" d="M20.39,18.87c8.76,0,15.7,7.1,15.7,15.7s-7.1,15.7-15.7,15.7c-8.61,0.15-15.7-6.95-15.7-15.55
							C4.68,25.97,11.63,18.87,20.39,18.87L20.39,18.87"/>
					</defs>
					<clipPath id="SVGID_17_">
						<use xlink:href="#SVGID_16_"  style="overflow:visible;"/>
					</clipPath>
					<g id="Layer_1_2_" class="st63">
						
							<radialGradient id="SVGID_18_" cx="20.1317" cy="20.8319" r="17.165" gradientTransform="matrix(1 0 0 1 0 14)" gradientUnits="userSpaceOnUse">
							<stop  offset="0" style="stop-color:#A2CD3A"/>
							<stop  offset="0.297" style="stop-color:#A2CD3A"/>
							<stop  offset="0.3459" style="stop-color:#A2CD3A"/>
							<stop  offset="0.5993" style="stop-color:#A0CB3A"/>
							<stop  offset="0.6905" style="stop-color:#99C63C"/>
							<stop  offset="0.7556" style="stop-color:#8EBE3E"/>
							<stop  offset="0.8082" style="stop-color:#7DB441"/>
							<stop  offset="0.8527" style="stop-color:#67A943"/>
							<stop  offset="0.8784" style="stop-color:#55A045"/>
							<stop  offset="1" style="stop-color:#2B5E2E"/>
						</radialGradient>
						<circle class="st64" cx="20.08" cy="34.88" r="17.21"/>
						<g>
							<path class="st65" d="M20.39,19.63c6.95,0,12.68,5.89,12.68,13.14s-5.59,13.14-12.68,13.14S7.7,40.01,7.7,32.77
								S13.44,19.63,20.39,19.63"/>
						</g>
						<path class="st66" d="M20.39,21.74c7.1,0,12.68,5.74,12.68,12.68S27.33,47.1,20.39,47.1S7.7,41.37,7.7,34.43l0,0
							C7.7,27.48,13.44,21.74,20.39,21.74"/>
						<path class="st67" d="M20.39,22.8c6.34,0,11.63,5.13,11.63,11.63s-5.13,11.63-11.63,11.63c-6.34,0-11.63-5.13-11.63-11.63
							C8.91,28.09,14.04,22.8,20.39,22.8"/>
						<path class="st68" d="M20.39,23.86c5.74,0,10.57,4.68,10.57,10.57S26.28,45,20.39,45c-5.74,0-10.57-4.68-10.57-10.57
							C9.97,28.69,14.65,24.01,20.39,23.86L20.39,23.86"/>
						<path class="st69" d="M10.12,32.77h3.93c0.3,0,0.6,0.3,0.6,0.6v8.31c0,0.3-0.3,0.6-0.6,0.6h-2.72c-0.3,0-0.6-0.3-0.6-0.6
							l-1.06-8.46C9.66,32.92,9.82,32.77,10.12,32.77 M23.25,30.8c-0.3,0.76,0.3,1.06,1.21,1.06l4.23-0.15
							c1.21,0.15,1.81,0.91,1.81,1.81c0,0.45-0.3,0.91-0.6,1.21c0.91,1.21,0.6,2.11-0.6,3.02c0.91,1.06,0.45,1.81-0.76,2.57
							c0.76,1.06,0.3,1.96-1.36,2.42c-1.51,0.3-3.62,0-5.74-0.3c-1.81-0.3-3.17-0.91-5.44-0.91c0-2.72-0.15-5.29-0.15-8
							c1.51-0.45,2.87-1.06,3.32-2.42c0.45-1.21,1.06-2.42,1.66-3.62c0.45-0.91,0.76-2.42,1.51-2.72c1.21-0.3,1.81,0.76,1.66,2.87
							C24.01,28.69,23.71,29.75,23.25,30.8L23.25,30.8z"/>
						<path class="st1" d="M10.12,32.01h3.93c0.3,0,0.6,0.3,0.6,0.6v8.31c0,0.3-0.3,0.6-0.6,0.6h-2.72c-0.3,0-0.6-0.3-0.6-0.6
							l-1.21-8.31C9.66,32.16,9.82,32.01,10.12,32.01 M23.25,30.05c-0.3,0.76,0.3,1.06,1.21,1.06l4.23-0.15
							c1.21,0.15,1.81,0.91,1.81,1.81c0,0.45-0.3,0.91-0.6,1.21c0.91,1.21,0.6,2.11-0.6,3.02c0.91,1.06,0.45,1.81-0.76,2.57
							c0.76,1.06,0.3,1.96-1.36,2.42c-1.51,0.3-3.62,0-5.74-0.3c-1.81-0.3-3.17-0.91-5.44-0.91c0-2.72-0.15-5.29-0.15-8
							c1.51-0.45,2.87-1.06,3.32-2.42c0.45-1.21,1.06-2.42,1.66-3.62c0.45-0.91,0.76-2.42,1.51-2.72c1.21-0.3,1.81,0.76,1.66,2.87
							C24.01,27.93,23.71,28.99,23.25,30.05L23.25,30.05z"/>
					</g>
				</g>
			</g>
		</g>
		<path class="st70" d="M84.15,39.54h-3.16v2.66h3.72v1.47h-5.56v-9.41h5.55v1.47h-3.7v2.34h3.16V39.54z M73.49,38.46h1.23
			c0.37,0,0.66-0.11,0.85-0.34c0.19-0.23,0.29-0.55,0.29-0.98c0-0.43-0.1-0.77-0.29-1.03c-0.19-0.25-0.48-0.38-0.85-0.38h-1.23
			V38.46z M73.49,39.92v3.74h-1.84v-9.4h3.07c0.93,0,1.65,0.24,2.18,0.73c0.53,0.49,0.79,1.17,0.79,2.04c0,0.49-0.11,0.92-0.33,1.27
			c-0.22,0.35-0.54,0.64-0.96,0.85c0.48,0.16,0.83,0.43,1.04,0.81c0.21,0.38,0.32,0.85,0.32,1.42v0.66c0,0.26,0.03,0.54,0.09,0.83
			c0.06,0.3,0.16,0.51,0.32,0.64v0.14h-1.9c-0.15-0.14-0.24-0.36-0.28-0.67c-0.04-0.31-0.06-0.63-0.06-0.95V41.4
			c0-0.47-0.1-0.83-0.29-1.09c-0.19-0.26-0.46-0.39-0.82-0.39H73.49z M70.33,34.26v6.41c0,1-0.29,1.78-0.88,2.32
			c-0.59,0.54-1.36,0.82-2.31,0.82c-0.95,0-1.72-0.27-2.31-0.82c-0.59-0.55-0.88-1.32-0.88-2.32v-6.41h1.83v6.41
			c0,0.57,0.12,0.99,0.36,1.27c0.24,0.27,0.57,0.41,1,0.41c0.44,0,0.78-0.13,1.01-0.39c0.23-0.26,0.35-0.69,0.35-1.29v-6.41H70.33z
			 M62.91,40.63l0.02,0.04c0.01,1.03-0.24,1.81-0.74,2.34c-0.5,0.53-1.24,0.79-2.21,0.79c-0.97,0-1.75-0.3-2.33-0.9
			c-0.58-0.59-0.87-1.44-0.87-2.54v-2.81c0-1.09,0.28-1.94,0.84-2.54c0.56-0.6,1.31-0.9,2.26-0.9c1,0,1.75,0.27,2.27,0.8
			c0.51,0.54,0.77,1.33,0.79,2.37l-0.02,0.04h-1.77c0.03-0.62-0.06-1.06-0.25-1.33c-0.19-0.27-0.53-0.41-1.01-0.41
			c-0.41,0-0.73,0.16-0.95,0.49c-0.22,0.32-0.33,0.81-0.33,1.47v2.82c0,0.66,0.12,1.16,0.35,1.48c0.23,0.32,0.58,0.49,1.03,0.49
			c0.44,0,0.75-0.13,0.93-0.38c0.17-0.26,0.25-0.7,0.23-1.32H62.91z M55.5,39.54h-3.16v2.66h3.72v1.47H50.5v-9.41h5.55v1.47h-3.7
			v2.34h3.16V39.54z M47.52,41.21c0-0.37-0.09-0.66-0.28-0.87c-0.19-0.21-0.52-0.42-1-0.63c-0.98-0.34-1.71-0.73-2.2-1.16
			c-0.49-0.43-0.73-1.04-0.73-1.82c0-0.77,0.28-1.4,0.85-1.88c0.57-0.49,1.3-0.73,2.18-0.73c0.9,0,1.62,0.27,2.18,0.81
			c0.56,0.54,0.83,1.22,0.81,2.05l-0.01,0.04h-1.78c0-0.43-0.11-0.78-0.32-1.05c-0.21-0.27-0.52-0.4-0.91-0.4
			c-0.37,0-0.65,0.11-0.86,0.33c-0.21,0.22-0.31,0.5-0.31,0.84c0,0.31,0.11,0.57,0.34,0.77c0.23,0.2,0.62,0.42,1.19,0.67
			c0.89,0.3,1.56,0.68,2.01,1.15c0.45,0.46,0.67,1.09,0.67,1.88c0,0.81-0.27,1.45-0.81,1.91c-0.54,0.46-1.27,0.69-2.17,0.69
			c-0.9,0-1.67-0.26-2.33-0.79c-0.66-0.52-0.98-1.27-0.95-2.25l0.01-0.04h1.79c0,0.58,0.12,1,0.37,1.25
			c0.25,0.25,0.62,0.38,1.11,0.38c0.39,0,0.68-0.1,0.86-0.31C47.42,41.84,47.52,41.56,47.52,41.21z"/>
	</g>
</g>
<path class="st1" d="M53.12,27.42c-0.06,0.46-0.19,0.82-0.38,1.08c-0.28,0.35-0.69,0.57-1.28,0.57h-0.32h-0.02
	c-0.58,0-1-0.2-1.17-0.53c-0.12-0.25-0.15-0.6-0.09-1.07l0.14-1.04c0.07-0.56,0.25-0.97,0.54-1.25c0.28-0.28,0.69-0.41,1.18-0.41
	h0.01h0.31c0.34,0,0.78,0.06,1.03,0.38c0.21,0.27,0.27,0.67,0.2,1.23L53.12,27.42z M58.23,29.07l-0.01,0.08
	c-0.03,0.26-0.17,0.51-0.36,0.68c-0.13,0.11-0.35,0.25-0.66,0.25h-0.94l0.09-0.72l0.04-0.29l0.65-5.3h0.15h0.62
	c0.49,0,0.82,0.13,0.98,0.38l1.7,2.72l2.43-2.75c0.21-0.23,0.56-0.35,1.03-0.35h0.62h0.18l-0.66,5.3l-0.01,0.08
	c-0.03,0.26-0.17,0.51-0.36,0.68c-0.13,0.11-0.35,0.25-0.66,0.25l-0.91,0l0.46-3.68l-1.91,2.41c-0.06,0.07-0.23,0.26-0.45,0.26
	h-0.01h0c-0.2,0-0.35-0.2-0.41-0.29l-1.26-2.39L58.23,29.07z M46.92,28.93h-0.2h-1.7H44.4l0,0c-0.34,0-0.61-0.03-0.82-0.09
	c-0.21-0.06-0.37-0.15-0.48-0.28c-0.08-0.09-0.13-0.21-0.16-0.34c0-0.01,0-0.03-0.01-0.04c-0.01-0.06-0.02-0.12-0.02-0.19
	c-0.01-0.16,0-0.34,0.02-0.55l0.13-0.96c0.01-0.11,0.04-0.22,0.06-0.32c0.01-0.03,0.02-0.06,0.03-0.1c0-0.01,0-0.01,0.01-0.02
	c0.02-0.08,0.05-0.16,0.08-0.23c0.01-0.02,0.01-0.04,0.02-0.05c0.03-0.06,0.06-0.12,0.09-0.17c0.03-0.05,0.07-0.09,0.1-0.14
	c0.14-0.17,0.34-0.29,0.59-0.39c0.25-0.09,0.57-0.13,0.98-0.13h1.39l0,0c0.25-0.02,0.43-0.06,0.54-0.13
	c0.13-0.08,0.25-0.19,0.34-0.33c0.01-0.02,0.03-0.05,0.04-0.07c0.07-0.12,0.13-0.26,0.18-0.42l0.06-0.2H45.1h-0.04h-0.13l-0.17,0
	c-0.31,0-0.6,0.03-0.87,0.07c-1.57,0.23-2.41,1.09-2.61,2.54l-0.14,1.1c-0.09,0.76,0.05,1.33,0.41,1.74
	c0.43,0.48,1.15,0.81,2.23,0.86l1.9,0c0.26-0.02,0.51-0.03,0.62-0.1c0.17-0.1,0.3-0.25,0.4-0.44c0.02-0.05,0.05-0.09,0.07-0.14
	C46.78,29.4,46.88,29.17,46.92,28.93z M75.47,25.57c0.06,0,0.12,0.01,0.18,0.02c0.21,0.04,0.35,0.14,0.43,0.23
	c0.15,0.17,0.23,0.42,0.2,0.68l-0.23,1.91l0,0l-0.06,0.49l0,0.03h0.01l0,0l1.06,0c0.07,0,0.16-0.01,0.27-0.02
	c0.47-0.05,1.25-0.24,1.48-0.86c0.01-0.02,0.01-0.03,0.02-0.05c0.05-0.17,0.09-0.34,0.11-0.53l0.09-0.67v0l0.04-0.31
	c0.03-0.25,0.04-0.49,0.01-0.71c-0.07-0.61-0.8-0.81-1.27-0.86c-0.1-0.01-0.2-0.02-0.26-0.02l-1.05,0v0h-0.75h-0.08l0,0
	c-0.25-0.02-0.41-0.06-0.51-0.13c-0.22-0.16-0.34-0.43-0.35-0.81l-0.01-0.19h0.12h0.09h2.3c0.01,0,0.02,0,0.03,0l0.27,0
	c1.4,0.01,2.32,0.29,2.83,0.86c0.38,0.43,0.52,1.01,0.43,1.77l-0.05,0.4l-0.07,0.62c-0.01,0.08-0.02,0.23-0.04,0.31
	c-0.07,0.4-0.18,0.75-0.35,1.04c-0.19,0.32-0.43,0.57-0.75,0.78c-0.1,0.06-0.21,0.12-0.33,0.17c-0.24,0.11-0.52,0.2-0.83,0.26
	c-0.09,0.02-0.25,0.03-0.43,0.05c-0.22,0.02-0.48,0.03-0.75,0.03h-1.9h-0.26c-0.47-0.01-0.75-0.09-0.9-0.26
	c-0.03-0.03-0.05-0.07-0.07-0.1c-0.05-0.1-0.07-0.22-0.05-0.37l0.23-1.76l0.25-2.01H75.47z M87.42,27.42
	c-0.06,0.46-0.19,0.82-0.39,1.08c-0.27,0.35-0.69,0.57-1.28,0.57h-0.32h-0.02c-0.58,0-1-0.2-1.17-0.53
	c-0.12-0.25-0.15-0.6-0.09-1.07l0.14-1.04c0.07-0.56,0.25-0.97,0.54-1.25c0.28-0.28,0.69-0.41,1.18-0.41h0.01h0.31
	c0.34,0,0.78,0.06,1.03,0.38c0.21,0.27,0.27,0.67,0.2,1.23L87.42,27.42z M88.93,24.53c-0.47-0.53-1.29-0.88-2.53-0.89h0l-0.31,0
	c-2.21,0.02-3.36,0.94-3.61,2.7l-0.15,1.14c-0.09,0.79,0.05,1.37,0.43,1.8c0.47,0.53,1.29,0.91,2.54,0.92h0.31
	c2.16-0.02,3.31-0.91,3.58-2.55h0l0.02-0.12l0.15-1.14C89.47,25.57,89.32,24.96,88.93,24.53z M70.91,27.42
	c-0.06,0.46-0.19,0.82-0.39,1.08c-0.27,0.35-0.69,0.57-1.28,0.57h-0.32h-0.01c-0.58,0-1-0.2-1.18-0.53
	c-0.12-0.25-0.15-0.6-0.09-1.07l0.14-1.04c0.07-0.56,0.25-0.97,0.54-1.25c0.28-0.28,0.69-0.41,1.18-0.41h0.01h0.31
	c0.34,0,0.78,0.06,1.03,0.38c0.21,0.27,0.27,0.67,0.2,1.23L70.91,27.42z M69.9,23.63L69.9,23.63L69.9,23.63l-0.31,0
	c-2.21,0.02-3.36,0.94-3.61,2.7l-0.15,1.14c-0.09,0.79,0.05,1.37,0.43,1.8c0.47,0.53,1.29,0.91,2.54,0.92h0.31
	c2.16-0.02,3.31-0.91,3.58-2.55h0l0.01-0.12l0.15-1.14c0.1-0.82-0.05-1.43-0.44-1.86C71.95,24,71.13,23.64,69.9,23.63z M52.1,23.63
	L52.1,23.63l-0.31,0c-2.21,0.02-3.36,0.94-3.61,2.7l-0.15,1.14c-0.09,0.79,0.05,1.37,0.43,1.8c0.47,0.53,1.29,0.91,2.54,0.92h0.31
	c2.16-0.02,3.31-0.91,3.58-2.55h0l0.02-0.12l0.15-1.14c0.1-0.82-0.05-1.43-0.44-1.86C54.16,24,53.34,23.64,52.1,23.63z"/>
</svg>
